<?xml version="1.0" encoding="UTF-8"?>
<svg version="1.1" xmlns="http://www.w3.org/2000/svg" width="1024" height="1024">
<path d="M0 0 C337.92 0 675.84 0 1024 0 C1024 337.92 1024 675.84 1024 1024 C686.08 1024 348.16 1024 0 1024 C0 686.08 0 348.16 0 0 Z " fill="#090E13" transform="translate(0,0)"/>
<path d="M0 0 C1.24007812 -0.02578125 2.48015625 -0.0515625 3.7578125 -0.078125 C13.22300506 0.34141702 21.05754049 4.68069196 29.0625 9.375 C30.07860352 9.96047607 31.09470703 10.54595215 32.14160156 11.14916992 C38.68678621 14.93287732 45.19256083 18.7818723 51.65625 22.703125 C56.71222059 25.76597345 61.80128088 28.77294092 66.88815308 31.78408813 C68.62517101 32.81260126 70.3616023 33.84209839 72.09790039 34.87182617 C77.55154228 38.10504286 83.00868305 41.33192778 88.47854614 44.53764343 C90.92133745 45.96983102 93.36205499 47.40553187 95.8026123 48.84152222 C97.51385556 49.846434 99.22807838 50.84626656 100.94238281 51.84594727 C117.41682426 61.54501655 117.41682426 61.54501655 121.75 68.6875 C122.30429687 69.57308594 122.85859375 70.45867187 123.4296875 71.37109375 C127.06777482 78.61777039 127.16749002 85.19280767 127.1496582 93.17700195 C127.15476913 94.36165039 127.15988007 95.54629883 127.16514587 96.7668457 C127.17662796 100.00051884 127.17912111 103.23403221 127.17658257 106.46772027 C127.17550845 109.17614616 127.18040764 111.88454873 127.185188 114.5929696 C127.19626321 120.9886741 127.19673227 127.38431986 127.19067383 133.7800293 C127.18463969 140.35622702 127.19693523 146.93221047 127.2182439 153.50837165 C127.23591788 159.17317951 127.24185203 164.83791953 127.23860615 170.50275391 C127.23680183 173.87774785 127.2393433 177.25258903 127.25332069 180.62755775 C127.26570818 184.39680931 127.25887861 188.16557028 127.24731445 191.93481445 C127.25495819 193.03800522 127.26260193 194.14119598 127.27047729 195.27781677 C127.2009971 205.56537481 125.18729338 215.57762512 117.875 223.25 C115.77205333 224.76541518 113.70576773 226.16107531 111.5078125 227.51953125 C110.58329033 228.10182999 110.58329033 228.10182999 109.64009094 228.69589233 C103.78268258 232.3615158 97.8352391 235.87190111 91.85638428 239.33547974 C88.69818928 241.16559093 85.54654943 243.00693348 82.39453125 244.84765625 C81.75825806 245.21900192 81.12198486 245.5903476 80.46643066 245.97294617 C74.36545712 249.53824778 68.30352511 253.16726734 62.25 256.8125 C53.87524195 261.85020785 45.4964185 266.88070783 37.09625244 271.87594604 C35.36492043 272.90630334 33.63531325 273.93955718 31.90576172 274.97290039 C18.42222299 282.98149716 6.99222268 288.61522365 -9.02734375 285.48828125 C-13.30557325 284.34234505 -16.89344388 282.43342053 -20.6875 280.1875 C-21.38528564 279.78466797 -22.08307129 279.38183594 -22.80200195 278.96679688 C-27.75969047 276.09186453 -32.67697326 273.14734015 -37.58007812 270.18041992 C-44.40997863 266.05358921 -51.30046327 262.03037935 -58.1875 258 C-69.72780648 251.24415733 -81.25798696 244.47208138 -92.7578125 237.64746094 C-95.00907567 236.31843553 -97.2684839 235.00463125 -99.53125 233.6953125 C-112.33468011 226.2513151 -120.27068322 219.81295035 -125.125 205.25 C-125.22122964 203.55529161 -125.25992965 201.85705151 -125.26544189 200.15962219 C-125.27115204 199.10687607 -125.27686218 198.05412994 -125.28274536 196.96948242 C-125.28386322 195.81464355 -125.28498108 194.65980469 -125.28613281 193.4699707 C-125.29358017 191.64516426 -125.29358017 191.64516426 -125.30117798 189.78349304 C-125.31328887 186.44438101 -125.32074578 183.10533162 -125.32518864 179.76620507 C-125.32812172 177.67811517 -125.33222706 175.59003073 -125.33669281 173.50194359 C-125.35036796 166.96335765 -125.36003354 160.42478424 -125.3638947 153.88618499 C-125.36837038 146.34897847 -125.38589527 138.81195376 -125.4148953 131.27480251 C-125.43655191 125.44281436 -125.44660116 119.61087721 -125.44793582 113.7788493 C-125.44898136 110.29877206 -125.45483476 106.8188657 -125.47275543 103.33883095 C-125.49238351 99.45149577 -125.48793129 95.56438539 -125.48144531 91.67700195 C-125.4906601 90.53228424 -125.49987488 89.38756653 -125.5093689 88.2081604 C-125.4582499 78.41563657 -123.4355836 71.73641748 -116.62304688 64.49072266 C-111.86293853 60.22095385 -106.38343689 57.12252534 -100.875 53.9375 C-99.6136814 53.19227967 -98.35327531 52.44551288 -97.09375 51.69726562 C-94.58987852 50.21256579 -92.08157846 48.73590994 -89.56835938 47.26708984 C-85.06597704 44.6296336 -80.59479338 41.94214708 -76.125 39.25 C-74.54823595 38.30589125 -72.9714113 37.36188373 -71.39453125 36.41796875 C-65.47170092 32.86427055 -59.56950731 29.27664929 -53.66699219 25.68936157 C-51.82909048 24.57258102 -49.99078869 23.45646218 -48.15234375 22.34057617 C-43.23957743 19.35841452 -38.32722466 16.37574942 -33.42578125 13.375 C-11.73722407 0.14460646 -11.73722407 0.14460646 0 0 Z " fill="#056EFD" transform="translate(258.125,353.75)"/>
<path d="M0 0 C1.24007812 -0.02578125 2.48015625 -0.0515625 3.7578125 -0.078125 C13.22300506 0.34141702 21.05754049 4.68069196 29.0625 9.375 C30.07860352 9.96047607 31.09470703 10.54595215 32.14160156 11.14916992 C38.68678621 14.93287732 45.19256083 18.7818723 51.65625 22.703125 C56.71222059 25.76597345 61.80128088 28.77294092 66.88815308 31.78408813 C68.62517101 32.81260126 70.3616023 33.84209839 72.09790039 34.87182617 C77.55154228 38.10504286 83.00868305 41.33192778 88.47854614 44.53764343 C90.92133745 45.96983102 93.36205499 47.40553187 95.8026123 48.84152222 C97.51385556 49.846434 99.22807838 50.84626656 100.94238281 51.84594727 C117.41682426 61.54501655 117.41682426 61.54501655 121.75 68.6875 C122.30429687 69.57308594 122.85859375 70.45867187 123.4296875 71.37109375 C127.06777482 78.61777039 127.16749002 85.19280767 127.1496582 93.17700195 C127.15476913 94.36165039 127.15988007 95.54629883 127.16514587 96.7668457 C127.17662796 100.00051884 127.17912111 103.23403221 127.17658257 106.46772027 C127.17550845 109.17614616 127.18040764 111.88454873 127.185188 114.5929696 C127.19626321 120.9886741 127.19673227 127.38431986 127.19067383 133.7800293 C127.18463969 140.35622702 127.19693523 146.93221047 127.2182439 153.50837165 C127.23591788 159.17317951 127.24185203 164.83791953 127.23860615 170.50275391 C127.23680183 173.87774785 127.2393433 177.25258903 127.25332069 180.62755775 C127.26570818 184.39680931 127.25887861 188.16557028 127.24731445 191.93481445 C127.25495819 193.03800522 127.26260193 194.14119598 127.27047729 195.27781677 C127.2009971 205.56537481 125.18729338 215.57762512 117.875 223.25 C115.77205333 224.76541518 113.70576773 226.16107531 111.5078125 227.51953125 C110.58329033 228.10182999 110.58329033 228.10182999 109.64009094 228.69589233 C103.78268258 232.3615158 97.8352391 235.87190111 91.85638428 239.33547974 C88.69818928 241.16559093 85.54654943 243.00693348 82.39453125 244.84765625 C81.75825806 245.21900192 81.12198486 245.5903476 80.46643066 245.97294617 C74.36545712 249.53824778 68.30352511 253.16726734 62.25 256.8125 C53.87524195 261.85020785 45.4964185 266.88070783 37.09625244 271.87594604 C35.36492043 272.90630334 33.63531325 273.93955718 31.90576172 274.97290039 C18.42222299 282.98149716 6.99222268 288.61522365 -9.02734375 285.48828125 C-13.30557325 284.34234505 -16.89344388 282.43342053 -20.6875 280.1875 C-21.38528564 279.78466797 -22.08307129 279.38183594 -22.80200195 278.96679688 C-27.75969047 276.09186453 -32.67697326 273.14734015 -37.58007812 270.18041992 C-44.40997863 266.05358921 -51.30046327 262.03037935 -58.1875 258 C-69.72780648 251.24415733 -81.25798696 244.47208138 -92.7578125 237.64746094 C-95.00907567 236.31843553 -97.2684839 235.00463125 -99.53125 233.6953125 C-112.33468011 226.2513151 -120.27068322 219.81295035 -125.125 205.25 C-125.22122964 203.55529161 -125.25992965 201.85705151 -125.26544189 200.15962219 C-125.27115204 199.10687607 -125.27686218 198.05412994 -125.28274536 196.96948242 C-125.28386322 195.81464355 -125.28498108 194.65980469 -125.28613281 193.4699707 C-125.29358017 191.64516426 -125.29358017 191.64516426 -125.30117798 189.78349304 C-125.31328887 186.44438101 -125.32074578 183.10533162 -125.32518864 179.76620507 C-125.32812172 177.67811517 -125.33222706 175.59003073 -125.33669281 173.50194359 C-125.35036796 166.96335765 -125.36003354 160.42478424 -125.3638947 153.88618499 C-125.36837038 146.34897847 -125.38589527 138.81195376 -125.4148953 131.27480251 C-125.43655191 125.44281436 -125.44660116 119.61087721 -125.44793582 113.7788493 C-125.44898136 110.29877206 -125.45483476 106.8188657 -125.47275543 103.33883095 C-125.49238351 99.45149577 -125.48793129 95.56438539 -125.48144531 91.67700195 C-125.4906601 90.53228424 -125.49987488 89.38756653 -125.5093689 88.2081604 C-125.4582499 78.41563657 -123.4355836 71.73641748 -116.62304688 64.49072266 C-111.86293853 60.22095385 -106.38343689 57.12252534 -100.875 53.9375 C-99.6136814 53.19227967 -98.35327531 52.44551288 -97.09375 51.69726562 C-94.58987852 50.21256579 -92.08157846 48.73590994 -89.56835938 47.26708984 C-85.06597704 44.6296336 -80.59479338 41.94214708 -76.125 39.25 C-74.54823595 38.30589125 -72.9714113 37.36188373 -71.39453125 36.41796875 C-65.47170092 32.86427055 -59.56950731 29.27664929 -53.66699219 25.68936157 C-51.82909048 24.57258102 -49.99078869 23.45646218 -48.15234375 22.34057617 C-43.23957743 19.35841452 -38.32722466 16.37574942 -33.42578125 13.375 C-11.73722407 0.14460646 -11.73722407 0.14460646 0 0 Z M-37.5 40.3125 C-38.92131226 41.15905151 -38.92131226 41.15905151 -40.37133789 42.02270508 C-42.33034379 43.19035792 -44.2884334 44.3595494 -46.24560547 45.53027344 C-48.9836576 47.16558285 -51.72722411 48.79118212 -54.47265625 50.4140625 C-64.5692031 56.39989981 -74.44483371 62.61217169 -84.125 69.25 C-85.1046875 69.91 -86.084375 70.57 -87.09375 71.25 C-93.57992673 75.67586177 -100.06747173 80.16807773 -102.69602966 87.93792725 C-103.29820002 91.18351685 -103.25550357 94.39260364 -103.23852539 97.68066406 C-103.23867142 98.42251953 -103.23881744 99.164375 -103.2389679 99.92871094 C-103.23827269 102.37437897 -103.23049866 104.81997031 -103.22265625 107.265625 C-103.22079068 108.96384642 -103.21936743 110.66206838 -103.21836853 112.36029053 C-103.21455432 116.82533255 -103.20473339 121.29034194 -103.19366455 125.75537109 C-103.18342687 130.31347207 -103.17886586 134.87157833 -103.17382812 139.4296875 C-103.16311014 148.36980599 -103.14604687 157.30990028 -103.125 166.25 C-102.465 166.58 -101.805 166.91 -101.125 167.25 C-100.795 177.81 -100.465 188.37 -100.125 199.25 C-99.135 199.58 -98.145 199.91 -97.125 200.25 C-97.00125 200.8275 -96.8775 201.405 -96.75 202 C-95.78826074 205.46226135 -93.89135165 207.04949301 -91.125 209.25 C-88.364835 209.20020416 -88.364835 209.20020416 -86.125 208.25 C-86.125 209.24 -86.125 210.23 -86.125 211.25 C-83.485 212.57 -80.845 213.89 -78.125 215.25 C-78.125 215.91 -78.125 216.57 -78.125 217.25 C-76.52350114 217.92305018 -74.91868971 218.58822227 -73.3125 219.25 C-72.41917969 219.62125 -71.52585937 219.9925 -70.60546875 220.375 C-68.0918567 221.41633237 -68.0918567 221.41633237 -65.125 221.25 C-65.125 221.91 -65.125 222.57 -65.125 223.25 C-62.155 224.24 -62.155 224.24 -59.125 225.25 C-59.125 225.91 -59.125 226.57 -59.125 227.25 C-57.145 227.58 -55.165 227.91 -53.125 228.25 C-53.125 229.24 -53.125 230.23 -53.125 231.25 C-45.02845174 236.21860017 -45.02845174 236.21860017 -36.125 239.25 C-36.125 239.91 -36.125 240.57 -36.125 241.25 C-35.465 241.25 -34.805 241.25 -34.125 241.25 C-34.125 241.91 -34.125 242.57 -34.125 243.25 C-33.465 243.25 -32.805 243.25 -32.125 243.25 C-31.795 244.24 -31.465 245.23 -31.125 246.25 C-28.27520361 247.36680706 -28.27520361 247.36680706 -25.125 248.25 C-21.29741379 249.90517241 -21.29741379 249.90517241 -20.125 252.25 C-17.09565509 252.90772428 -17.09565509 252.90772428 -14.125 253.25 C-14.125 253.91 -14.125 254.57 -14.125 255.25 C-10.15306853 258.37940055 -7.08269796 258.54162929 -2.125 258.25 C-1.795 258.91 -1.465 259.57 -1.125 260.25 C-0.135 260.25 0.855 260.25 1.875 260.25 C2.205 259.59 2.535 258.93 2.875 258.25 C4.24398437 258.04117188 4.24398437 258.04117188 5.640625 257.828125 C9.20150261 257.19163963 10.79150044 256.18692919 13.625 254 C18.47763674 250.43702798 23.44424111 247.81034147 28.875 245.25 C30.35583407 244.50329759 31.83513274 243.75353833 33.3125 243 C36.875 241.25 36.875 241.25 39.875 240.25 C39.875 239.26 39.875 238.27 39.875 237.25 C40.42027344 237.09144531 40.96554687 236.93289063 41.52734375 236.76953125 C46.69606179 235.17032105 51.18240937 233.10771032 55.85546875 230.390625 C58.12128097 229.11090127 60.42342651 228.11991317 62.875 227.25 C62.875 226.59 62.875 225.93 62.875 225.25 C63.390625 225.0025 63.90625 224.755 64.4375 224.5 C66.99674928 223.18756447 69.47215086 221.75281907 71.9609375 220.3125 C73.86137199 219.25756494 75.78931777 218.31237796 77.75 217.375 C82.35525166 215.09946389 86.87719659 212.4889611 90.875 209.25 C90.875 208.59 90.875 207.93 90.875 207.25 C91.535 207.25 92.195 207.25 92.875 207.25 C92.875 206.59 92.875 205.93 92.875 205.25 C93.535 205.25 94.195 205.25 94.875 205.25 C100.12196932 193.25692726 99.28273256 181.07632546 98.875 168.25 C98.545 168.25 98.215 168.25 97.875 168.25 C97.9471875 167.22390625 98.019375 166.1978125 98.09375 165.140625 C98.94754166 151.55314058 98.94410703 137.99902598 98.83789062 124.39160156 C98.83366089 123.6208429 98.82943115 122.85008423 98.82507324 122.05596924 C98.81689979 120.59756357 98.8045184 119.13917329 98.78723145 117.68084717 C98.77068199 114.35103608 99.00882724 111.45533622 99.875 108.25 C99.55454565 105.91486305 99.21962128 103.58169289 98.875 101.25 C98.91845112 97.41840105 99.06352502 93.60149611 99.23046875 89.7734375 C98.81434782 85.64881022 97.72013853 84.18022678 94.875 81.25 C94.33875 80.651875 93.8025 80.05375 93.25 79.4375 C91.92552654 78.03212671 91.92552654 78.03212671 89.875 78.25 C89.875 77.59 89.875 76.93 89.875 76.25 C88.885 76.25 87.895 76.25 86.875 76.25 C86.50375 75.3528125 86.50375 75.3528125 86.125 74.4375 C84.68307503 71.91413131 83.34950374 70.74969924 80.875 69.25 C79.885 69.25 78.895 69.25 77.875 69.25 C77.545 68.26 77.215 67.27 76.875 66.25 C74.87439943 65.33478813 74.87439943 65.33478813 72.5 64.75 C69.03083254 63.80078154 67.33771628 62.84233292 64.875 60.25 C64.215 60.25 63.555 60.25 62.875 60.25 C62.875 59.59 62.875 58.93 62.875 58.25 C62.276875 57.981875 61.67875 57.71375 61.0625 57.4375 C58.875 56.25 58.875 56.25 57.578125 54.87109375 C55.40298297 52.80071773 53.07735945 51.55059574 50.4375 50.125 C49.49003906 49.60679687 48.54257812 49.08859375 47.56640625 48.5546875 C45.28925634 47.45081512 43.34390474 46.72860565 40.875 46.25 C40.875 45.59 40.875 44.93 40.875 44.25 C39.823125 43.981875 38.77125 43.71375 37.6875 43.4375 C34.28106874 42.37648043 31.88220311 41.08773523 28.875 39.25 C27.885 39.25 26.895 39.25 25.875 39.25 C25.66875 38.693125 25.4625 38.13625 25.25 37.5625 C21.76844353 31.70715503 15.35809828 27.9224775 8.875 26.25 C-9.27465993 24.56427307 -22.26506516 31.18979281 -37.5 40.3125 Z " fill="#035EFD" transform="translate(258.125,353.75)"/>
<path d="M0 0 C0.66 0 1.32 0 2 0 C2.23292301 15.69363542 2.03886489 31.27379244 1.0625 46.9375 C1.01893372 47.64977753 0.97536743 48.36205505 0.93048096 49.09591675 C0.53480346 55.4636731 0.0509733 61.69416018 -1 68 C20.78 68 42.56 68 65 68 C62.96807887 72.06384226 60.48291552 75.26959956 57.625 78.75 C53.3467932 84.02576634 49.17559461 89.36003797 45.125 94.8125 C40.24578706 101.37492082 35.25291895 107.83993151 30.21582031 114.28173828 C26.37365094 119.20577609 22.60190053 124.17579955 18.875 129.1875 C14.54259431 135.00988648 10.0719821 140.69891938 5.51049805 146.34301758 C0.27320391 152.84954298 -4.69831987 159.54862638 -9.68847656 166.24511719 C-11.5052423 168.67603903 -13.33897675 171.09314728 -15.1875 173.5 C-15.71730469 174.1909375 -16.24710937 174.881875 -16.79296875 175.59375 C-17.19128906 176.0578125 -17.58960938 176.521875 -18 177 C-18.33 177 -18.66 177 -19 177 C-19.21194584 164.73069102 -18.65673554 152.59474954 -17.77319336 140.3581543 C-17.56054532 137.41040405 -17.35674058 134.46213893 -17.15429688 131.51367188 C-17.02133959 129.6119437 -16.88789391 127.7102496 -16.75390625 125.80859375 C-16.6934462 124.94076767 -16.63298615 124.07294159 -16.57069397 123.17881775 C-16.51070724 122.35337967 -16.45072052 121.52794159 -16.38891602 120.67749023 C-16.33784195 119.96487534 -16.28676788 119.25226044 -16.23414612 118.51805115 C-15.9073054 115.00314491 -15.43785123 111.50280988 -15 108 C-37.44 108 -59.88 108 -83 108 C-82.06348863 104.25395453 -81.47951108 103.00390551 -79.19140625 100.12890625 C-78.3257605 99.0301416 -78.3257605 99.0301416 -77.44262695 97.90917969 C-76.82218506 97.13477539 -76.20174316 96.36037109 -75.5625 95.5625 C-74.27572877 93.93384092 -72.98927204 92.3049333 -71.703125 90.67578125 C-71.06955078 89.87736816 -70.43597656 89.07895508 -69.78320312 88.25634766 C-67.42872845 85.27715065 -65.11873503 82.26670421 -62.8125 79.25 C-55.14977825 69.27471133 -47.34902444 59.41186122 -39.4765625 49.6015625 C-36.16163223 45.46644329 -32.88526404 41.30327789 -29.625 37.125 C-24.90855683 31.08633439 -20.04478871 25.1768443 -15.14794922 19.28393555 C-10.55136016 13.73094502 -6.17556499 8.04211357 -1.890625 2.24609375 C-1.26671875 1.50488281 -0.6428125 0.76367188 0 0 Z " fill="#013268" transform="translate(267,408)"/>
<path d="M0 0 C6.93 0 13.86 0 21 0 C21 15.18 21 30.36 21 46 C24.3 43.69 27.6 41.38 31 39 C36.55148436 36.0069726 41.14016534 35.48312295 47.3125 35.5625 C48.15482178 35.57224854 48.99714355 35.58199707 49.86499023 35.59204102 C60.4476839 35.89381913 67.00812331 39.09485883 74.671875 46.4453125 C81.00864474 53.39874775 84.96685008 60.83518577 87 70 C87.18304687 70.78632813 87.36609375 71.57265625 87.5546875 72.3828125 C89.84685886 85.85434592 87.45156185 100.47715874 80 112 C73.65316657 120.77088069 66.22063134 125.59312289 56 129 C43.90104078 130.18169635 35.26165738 128.78781019 25 122 C23.1171875 120.26953125 23.1171875 120.26953125 22 119 C21.67 121.64 21.34 124.28 21 127 C14.07 127 7.14 127 0 127 C0 85.09 0 43.18 0 0 Z " fill="#EFF0F0" transform="translate(819,434)"/>
<path d="M0 0 C7.26 0 14.52 0 22 0 C22.01458252 1.72557129 22.02916504 3.45114258 22.04418945 5.22900391 C22.09593776 10.94481006 22.16124958 16.66035473 22.23571491 22.37590981 C22.2803494 25.83961259 22.31962018 29.30319964 22.34643555 32.76708984 C22.37753763 36.75383392 22.43232449 40.74008676 22.48828125 44.7265625 C22.49467117 45.96427399 22.5010611 47.20198547 22.50764465 48.47720337 C22.56906572 56.6807285 22.56906572 56.6807285 26 64 C31.22951874 68.83730483 35.38381988 69.30176127 42.27734375 69.2109375 C47.54383714 68.80291649 50.16723438 66.8706186 53.75 63.125 C57.04835164 58.54395605 58.24121325 55.01203906 58.31884766 49.38354492 C58.33871735 48.28278122 58.35858704 47.18201752 58.37905884 46.04789734 C58.39061005 44.8706459 58.40216125 43.69339447 58.4140625 42.48046875 C58.43342865 41.26676102 58.4527948 40.05305328 58.4727478 38.80256653 C58.53246571 34.93094889 58.57889855 31.05930139 58.625 27.1875 C58.66318688 24.560534 58.70223902 21.93358043 58.7421875 19.30664062 C58.83816116 12.87119482 58.92222158 6.4356904 59 0 C65.93 0 72.86 0 80 0 C80 29.37 80 58.74 80 89 C73.07 89 66.14 89 59 89 C58.505 85.535 58.505 85.535 58 82 C57.5153125 82.39832031 57.030625 82.79664063 56.53125 83.20703125 C46.78715874 90.90861108 38.09120821 92.06190252 26 91 C17.15855323 89.05070465 10.27874046 83.64442066 5.1875 76.25 C-0.03226767 66.82637269 -0.42096195 57.14236503 -0.29296875 46.58203125 C-0.28735795 45.23012264 -0.28309489 43.87820784 -0.28010559 42.52629089 C-0.26877329 39.00648489 -0.23941002 35.48706357 -0.20599365 31.96740723 C-0.17503865 28.36048584 -0.16154652 24.75350094 -0.14648438 21.14648438 C-0.11452599 14.09748589 -0.0618567 7.0488089 0 0 Z " fill="#EFF0EF" transform="translate(724,472)"/>
<path d="M0 0 C7.53712955 5.63574841 10.72910533 13.08289602 13 22 C13.24050903 25.27146912 13.24050903 25.27146912 13.22705078 28.66967773 C13.22689972 29.95047714 13.22674866 31.23127655 13.22659302 32.55088806 C13.21638289 33.92845825 13.20595096 35.30602681 13.1953125 36.68359375 C13.19157721 38.10848288 13.18873267 39.53337459 13.18673706 40.95826721 C13.17914121 44.68845855 13.15952809 48.4184914 13.1373291 52.14862061 C13.11678291 55.9629909 13.10771667 59.77738707 13.09765625 63.59179688 C13.07627786 71.06127815 13.04112933 78.53059658 13 86 C5.74 86 -1.52 86 -9 86 C-9.01458252 84.27966553 -9.02916504 82.55933105 -9.04418945 80.78686523 C-9.09597567 75.08304047 -9.16129744 69.37947649 -9.23571491 63.67590237 C-9.28031496 60.22007548 -9.31959312 56.76436366 -9.34643555 53.30834961 C-9.37758136 49.32901187 -9.43236658 45.35016351 -9.48828125 41.37109375 C-9.49467117 40.13854355 -9.5010611 38.90599335 -9.50764465 37.63609314 C-9.61435144 31.37910122 -9.79029218 26.45333192 -13 21 C-18.78089693 16.4234566 -23.79154798 15.17184451 -31 16 C-35.52940782 17.39060766 -38.36940346 19.25621947 -41.4375 22.875 C-43.82875057 27.65750114 -44.1184175 32.34940758 -44.20532227 37.63818359 C-44.22526749 38.71885101 -44.24521271 39.79951843 -44.26576233 40.91293335 C-44.28247482 42.06314972 -44.29918732 43.21336609 -44.31640625 44.3984375 C-44.33718735 45.58853424 -44.35796844 46.77863098 -44.37937927 48.00479126 C-44.44460095 51.79480385 -44.50363234 55.58488391 -44.5625 59.375 C-44.60571126 61.94922564 -44.64932638 64.52344453 -44.69335938 67.09765625 C-44.80025428 73.3983689 -44.90159864 79.69914921 -45 86 C-51.93 86 -58.86 86 -66 86 C-66 56.63 -66 27.26 -66 -3 C-59.4 -3 -52.8 -3 -46 -3 C-46 -0.69 -46 1.62 -46 4 C-45.28714844 3.51789063 -44.57429688 3.03578125 -43.83984375 2.5390625 C-42.88207031 1.90742188 -41.92429687 1.27578125 -40.9375 0.625 C-39.99777344 -0.00148438 -39.05804688 -0.62796875 -38.08984375 -1.2734375 C-26.41088507 -7.79948015 -11.27284773 -6.81534 0 0 Z " fill="#EDEEEC" transform="translate(495,475)"/>
<path d="M0 0 C1.3768396 -0.02199463 1.3768396 -0.02199463 2.78149414 -0.04443359 C13.07412872 0.10856876 22.25846125 3.83604366 29.5 11.25 C33.66671831 16.56290296 35.875 21.82194537 35.875 28.5625 C28.285 28.5625 20.695 28.5625 12.875 28.5625 C11.885 26.5825 10.895 24.6025 9.875 22.5625 C6.114718 19.50525529 3.08737542 19.15430272 -1.6875 19.1875 C-2.80253906 19.17976563 -3.91757812 19.17203125 -5.06640625 19.1640625 C-8.40946545 19.5995568 -9.81775594 20.12830232 -12.125 22.5625 C-12.81673454 26.67119858 -12.81673454 26.67119858 -12.125 30.5625 C-8.48167822 34.01474868 -5.48732522 35.26408665 -0.609375 36.2734375 C0.64230469 36.54929687 1.89398437 36.82515625 3.18359375 37.109375 C5.79387835 37.66218695 8.40651435 38.20228632 11.01953125 38.7421875 C20.30985644 40.80035185 27.70168818 43.50446582 33.9375 50.9375 C37.6966945 57.7485841 37.08131218 67.29613903 35.0234375 74.57421875 C31.15130639 83.17456437 24.51106929 88.29578069 15.953125 91.8359375 C5.59926975 95.45589441 -9.76076776 95.52808953 -19.765625 91.01953125 C-26.87102002 86.63159691 -33.79461536 80.87273956 -36.125 72.5625 C-36.455 69.9225 -36.785 67.2825 -37.125 64.5625 C-29.865 64.5625 -22.605 64.5625 -15.125 64.5625 C-14.135 66.5425 -13.145 68.5225 -12.125 70.5625 C-9.71064265 73.78164313 -6.98446666 74.61583837 -3.125 75.5625 C2.27861494 76.1880682 6.23077335 75.6586511 10.875 72.5625 C13.03241221 69.93608513 12.8740559 68.50963058 12.8125 65.0625 C11.65415812 60.73802366 10.59338539 59.9662056 6.875 57.5625 C4.15035906 56.60399439 1.39052614 56.00957213 -1.4375 55.4375 C-2.89204354 55.12293384 -4.34647122 54.80783147 -5.80078125 54.4921875 C-6.51596924 54.33999756 -7.23115723 54.18780762 -7.96801758 54.03100586 C-18.406261 51.76377449 -26.59110852 49.20141252 -32.875 40 C-36.16100704 33.59228628 -36.37789181 25.58523785 -34.25390625 18.765625 C-30.18226877 9.95486849 -23.95190836 4.98816648 -14.97265625 1.48046875 C-9.94689055 0.2814282 -5.15355931 0.05091 0 0 Z " fill="#EEEFEE" transform="translate(676.125,469.4375)"/>
<path d="M0 0 C1.64935547 0.03383789 1.64935547 0.03383789 3.33203125 0.06835938 C6.01362211 0.12665483 8.69450092 0.21630984 11.375 0.3125 C11.375 5.9225 11.375 11.5325 11.375 17.3125 C3.6875 17.5625 3.6875 17.5625 1.29418945 17.61035156 C-2.22632434 17.77950003 -4.42497193 18.20722207 -7.59375 19.875 C-10.30781649 23.13187979 -10.4011171 25.99988877 -10.4375 30.0625 C-10.499375 32.455 -10.56125 34.8475 -10.625 37.3125 C-5.345 37.3125 -0.065 37.3125 5.375 37.3125 C5.375 43.9125 5.375 50.5125 5.375 57.3125 C0.095 57.3125 -5.185 57.3125 -10.625 57.3125 C-10.625 80.4125 -10.625 103.5125 -10.625 127.3125 C-17.555 127.3125 -24.485 127.3125 -31.625 127.3125 C-31.625 104.2125 -31.625 81.1125 -31.625 57.3125 C-35.915 57.3125 -40.205 57.3125 -44.625 57.3125 C-44.625 51.0425 -44.625 44.7725 -44.625 38.3125 C-40.665 38.3125 -36.705 38.3125 -32.625 38.3125 C-32.67140625 37.18972656 -32.7178125 36.06695312 -32.765625 34.91015625 C-33.22736989 19.12976039 -33.22736989 19.12976039 -28.625 12.3125 C-28.2125 11.68085938 -27.8 11.04921875 -27.375 10.3984375 C-20.44241562 1.14186177 -10.93693103 -0.43189582 0 0 Z " fill="#EDEEED" transform="translate(560.625,433.6875)"/>
<path d="M0 0 C6.93 0 13.86 0 21 0 C21 7.59 21 15.18 21 23 C26.61 23 32.22 23 38 23 C38 29.6 38 36.2 38 43 C32.39 43 26.78 43 21 43 C21.09346486 49.21161357 21.19954341 55.42283413 21.31738281 61.6340332 C21.35569581 63.74757972 21.39054457 65.86119196 21.421875 67.97485352 C21.46747504 71.0108186 21.52547783 74.04633028 21.5859375 77.08203125 C21.59748871 78.02899368 21.60903992 78.97595612 21.62094116 79.95161438 C21.64081085 80.83230087 21.66068054 81.71298737 21.68115234 82.62036133 C21.69447601 83.39535477 21.70779968 84.17034821 21.7215271 84.96882629 C21.89208435 87.31104803 21.89208435 87.31104803 24 90 C26.62677547 90.38663774 28.99113681 90.60177599 31.625 90.6875 C34.05875 90.790625 36.4925 90.89375 39 91 C39 97.93 39 104.86 39 112 C30.08574251 113.48570958 18.58907603 115.28536571 10.53515625 110.1875 C5.0275255 105.92714441 2.07946846 101.60772685 0 95 C-0.50814025 90.90281914 -0.46865237 86.8694216 -0.390625 82.74609375 C-0.38496521 81.60463394 -0.37930542 80.46317413 -0.37347412 79.28712463 C-0.35122749 75.67014192 -0.30105107 72.05417924 -0.25 68.4375 C-0.22991995 65.97332168 -0.21167183 63.50912771 -0.1953125 61.04492188 C-0.15140079 55.02955971 -0.08245308 49.01495232 0 43 C-3.96 43 -7.92 43 -12 43 C-12 36.4 -12 29.8 -12 23 C-8.04 23 -4.08 23 0 23 C0 15.41 0 7.82 0 0 Z " fill="#EEEFEE" transform="translate(590,448)"/>
<path d="M0 0 C1.65208436 0.95246953 3.30420069 1.90488409 4.95687866 2.85632324 C13.01308191 7.50058865 21.01197256 12.2397163 29 17 C30.51303711 17.90032959 30.51303711 17.90032959 32.05664062 18.81884766 C41.10911378 24.2109044 50.14296686 29.63567658 59.09375 35.1953125 C61.08573565 36.43227133 63.08624089 37.65558478 65.09375 38.8671875 C66.0734375 39.46789062 67.053125 40.06859375 68.0625 40.6875 C68.91972656 41.20699219 69.77695312 41.72648437 70.66015625 42.26171875 C75.810192 46.08770524 78.35094557 50.87665402 80 57 C80.41166442 60.53418813 80.42076555 64.03236046 80.40405273 67.58764648 C80.41091599 68.61799011 80.41777924 69.64833374 80.42485046 70.7098999 C80.44306913 74.09710689 80.43928793 77.48384854 80.43359375 80.87109375 C80.43815781 83.23706716 80.44346406 85.60303924 80.44947815 87.9690094 C80.45839953 92.92088212 80.45599698 97.87259347 80.44604492 102.82446289 C80.43455522 109.1572229 80.45477239 115.4894253 80.48396206 121.82211208 C80.50234383 126.70615655 80.50202762 131.59006787 80.49632454 136.47413826 C80.49617158 138.80842941 80.50219514 141.14272973 80.51461601 143.47698784 C80.52956146 146.74599667 80.51882196 150.0139813 80.50170898 153.28295898 C80.51621094 154.71636375 80.51621094 154.71636375 80.53100586 156.1787262 C80.43478373 164.99578682 77.63436107 171.94661228 71.65136719 178.45410156 C68.89381335 181.03553724 65.87005619 182.96342963 62.625 184.875 C61.92366943 185.30079346 61.22233887 185.72658691 60.49975586 186.1652832 C55.27636227 189.31170177 49.96749571 192.3025378 44.63305664 195.25561523 C38.19085483 198.84112897 31.8776063 202.63361158 25.5625 206.4375 C24.48742187 207.08468994 23.41234375 207.73187988 22.3046875 208.39868164 C20.18872862 209.67272957 18.07284147 210.94689662 15.95703125 212.22119141 C-16.19740443 231.56376227 -16.19740443 231.56376227 -30 230 C-41.79129443 226.70601664 -52.0921914 219.17688862 -62.31396484 212.68603516 C-66.47862674 210.07186 -70.70790826 207.56970402 -74.9375 205.0625 C-83.13967996 200.17821151 -91.21179972 195.10665087 -99.24365234 189.94750977 C-103.75560993 187.05101947 -108.28403614 184.20979648 -112.90136719 181.48461914 C-119.78433538 177.40481157 -124.42303639 173.82165356 -127 166 C-127.24291992 162.9074707 -127.24291992 162.9074707 -127.23046875 159.42578125 C-127.22917969 158.12962891 -127.22789062 156.83347656 -127.2265625 155.49804688 C-127.21405994 154.10285984 -127.20102821 152.70767746 -127.1875 151.3125 C-127.1806304 149.88476731 -127.17412348 148.45703283 -127.16796875 147.02929688 C-127.08832971 134.00858918 -126.63538984 121.00521332 -126 108 C-125.67 108 -125.34 108 -125 108 C-124.34 127.47 -123.68 146.94 -123 167 C-122.34 167.33 -121.68 167.66 -121 168 C-120.67 168.99 -120.34 169.98 -120 171 C-116.82798208 174.93815621 -116.82798208 174.93815621 -112.1875 176.3125 C-111.465625 176.209375 -110.74375 176.10625 -110 176 C-110 176.99 -110 177.98 -110 179 C-108.88625 179.268125 -107.7725 179.53625 -106.625 179.8125 C-103 181 -103 181 -101 184 C-98.13591109 185.45604386 -98.13591109 185.45604386 -94.875 186.6875 C-93.77929688 187.12449219 -92.68359375 187.56148437 -91.5546875 188.01171875 C-90.71164063 188.33785156 -89.86859375 188.66398438 -89 189 C-89 189.66 -89 190.32 -89 191 C-86.03 191.99 -86.03 191.99 -83 193 C-83 193.66 -83 194.32 -83 195 C-81.02 195.33 -79.04 195.66 -77 196 C-77 196.99 -77 197.98 -77 199 C-76.13375 199.1546875 -76.13375 199.1546875 -75.25 199.3125 C-72.65708532 200.10477948 -71.15204226 201.36966495 -69 203 C-67.34795544 203.70211894 -65.68076231 204.36971413 -64 205 C-62.65949948 205.65213539 -61.32338632 206.31379969 -60 207 C-60 207.66 -60 208.32 -60 209 C-59.34 209 -58.68 209 -58 209 C-58 209.66 -58 210.32 -58 211 C-57.34 211 -56.68 211 -56 211 C-55.67 211.66 -55.34 212.32 -55 213 C-53.9171875 213.185625 -53.9171875 213.185625 -52.8125 213.375 C-49.21784153 214.17381299 -46.90251957 215.77248498 -44 218 C-44 218.66 -44 219.32 -44 220 C-42.02 220.33 -40.04 220.66 -38 221 C-38 221.66 -38 222.32 -38 223 C-30.42743951 226.44207295 -23.12944697 226.73542864 -15.35546875 224.046875 C-12.20269433 222.64564192 -9.77439136 220.69677756 -7.09765625 218.546875 C-3.37024359 215.79816846 0.82058591 213.96013856 5 212 C10.48347162 209.43349548 10.48347162 209.43349548 15.4375 206 C18.37843238 203.70463815 21.30548085 202.4494823 24.7265625 201.01171875 C26.84393249 200.06945272 28.76924985 199.01046461 30.75 197.8125 C33.65820245 196.19061786 35.73199283 195.39612208 39 195 C39 194.34 39 193.68 39 193 C43.51017913 188.59060699 48.62620539 186.21995065 54.4609375 184.0703125 C58.90634331 182.19640297 64.77275233 179.45449534 67 175 C67.66 175 68.32 175 69 175 C69 174.34 69 173.68 69 173 C69.66 173 70.32 173 71 173 C73.83846158 161.26769213 74.13406285 150.00607297 74 138 C73.67 138 73.34 138 73 138 C73.03029297 137.20231201 73.06058594 136.40462402 73.09179688 135.58276367 C73.23300579 131.78451555 73.36858239 127.98609738 73.5 124.1875 C73.52400879 123.49570648 73.54801758 122.80391296 73.57275391 122.09115601 C73.95448596 110.84904962 74.08456871 99.63121088 73.96289062 88.3815918 C73.95451172 87.33398682 73.94613281 86.28638184 73.9375 85.20703125 C73.92589844 84.2941333 73.91429687 83.38123535 73.90234375 82.44067383 C73.9946705 80.13319743 74.43845331 78.22600619 75 76 C74.76462537 74.41962748 74.52376966 72.83980056 74.25 71.265625 C73.79988917 67.18649561 74.03982243 63.08444456 74.16015625 58.98828125 C73.99974312 55.99520696 73.50094273 54.53318959 72 52 C71.71125 51.113125 71.4225 50.22625 71.125 49.3125 C70.23446438 46.81210579 70.23446438 46.81210579 67.875 46.1875 C67.25625 46.125625 66.6375 46.06375 66 46 C66 45.34 66 44.68 66 44 C65.01 44 64.02 44 63 44 C61.824375 42.7934375 61.824375 42.7934375 60.625 41.5625 C57.89910148 38.90150383 56.7031665 38.31741427 53 38 C53 36.68 53 35.36 53 34 C52.29875 34.0825 51.5975 34.165 50.875 34.25 C47.03925554 33.916457 45.06131259 32.26270931 42 30 C41.01 29.34 40.02 28.68 39 28 C39 27.34 39 26.68 39 26 C38.360625 25.896875 37.72125 25.79375 37.0625 25.6875 C36.381875 25.460625 35.70125 25.23375 35 25 C34.67 24.01 34.34 23.02 34 22 C32.00531118 21.31760646 30.00342734 20.65629516 28 20 C24.28018702 18.09410681 20.63740861 16.05817783 17 14 C17 13.34 17 12.68 17 12 C16.13375 12.0825 15.2675 12.165 14.375 12.25 C10.21313456 11.94171367 8.32222178 10.43629597 5 8 C4.01 7.67 3.02 7.34 2 7 C0.78125 5.546875 0.78125 5.546875 -0.5 3.75 C-5.4361734 -2.08913195 -11.36912913 -4.61989886 -18.91796875 -5.41015625 C-26.62863389 -5.70334785 -33.79107178 -4.91129793 -41 -2 C-29.0287941 -14.5697662 -12.47878052 -7.33949941 0 0 Z " fill="#0942DC" transform="translate(282,386)"/>
<path d="M0 0 C6.63250165 2.89371694 10.558713 8.58194451 13.5234375 15.0078125 C15.94059546 22.34613039 15.93393065 31.24037773 12.9609375 38.3828125 C9.99155619 44.00790808 6.48889914 48.5374594 0.6484375 51.3828125 C-5.34794675 53.17541579 -11.82914658 53.41789966 -17.6015625 50.8203125 C-23.33805065 47.51748599 -27.80015782 42.36389864 -29.87890625 36.015625 C-31.32761526 27.94595661 -32.29298831 17.21493057 -27.7578125 10.0234375 C-20.02946214 1.00702874 -12.00290663 -3.15026453 0 0 Z " fill="#0A0D10" transform="translate(870.3515625,490.6171875)"/>
<path d="M0 0 C1.65208436 0.95246953 3.30420069 1.90488409 4.95687866 2.85632324 C13.01308191 7.50058865 21.01197256 12.2397163 29 17 C30.00869141 17.60021973 31.01738281 18.20043945 32.05664062 18.81884766 C41.10911378 24.2109044 50.14296686 29.63567658 59.09375 35.1953125 C61.08573565 36.43227133 63.08624089 37.65558478 65.09375 38.8671875 C66.0734375 39.46789062 67.053125 40.06859375 68.0625 40.6875 C68.91972656 41.20699219 69.77695312 41.72648437 70.66015625 42.26171875 C75.80901462 46.08683056 78.35480304 50.87632463 80 57 C80.40778024 60.54518309 80.4107212 64.05367775 80.38818359 67.61938477 C80.39344055 68.65294098 80.39869751 69.68649719 80.40411377 70.75137329 C80.41725567 74.14820728 80.40859669 77.54456797 80.3984375 80.94140625 C80.40045974 83.3121703 80.40337243 85.68293375 80.40713501 88.05369568 C80.41155037 93.0139663 80.40515193 97.97407448 80.39111328 102.93432617 C80.37401274 109.28514041 80.38387339 115.63557451 80.40183067 121.98637486 C80.41268169 126.87890985 80.40921623 131.77135502 80.4014473 136.66389275 C80.39944943 139.00541161 80.40189 141.34693869 80.40888596 143.68844795 C80.41652293 146.96252112 80.4048645 150.23598208 80.38818359 153.51000977 C80.39425629 154.4728035 80.40032898 155.43559723 80.40658569 156.42756653 C80.35360869 162.05359819 79.59906717 165.99049247 77 171 C76.03345975 168.10037926 75.88467582 166.32390603 75.90666199 163.31376648 C75.91106796 162.35068573 75.91547394 161.38760498 75.92001343 160.39533997 C75.92989288 159.34021713 75.93977234 158.2850943 75.94995117 157.19799805 C75.95623032 156.08553711 75.96250946 154.97307617 75.96897888 153.8269043 C75.98284455 151.40748076 75.99878369 148.98806845 76.01653099 146.56867027 C76.04311943 142.74002103 76.06102024 138.91142915 76.07600403 135.0827179 C76.11880687 124.19541555 76.16602221 113.30823563 76.24682617 102.42114258 C76.29612966 95.76524328 76.32433971 89.10945344 76.34057045 82.45337868 C76.35047658 79.91561831 76.36769947 77.37787561 76.39235497 74.84021568 C76.42607694 71.29000731 76.43498552 67.74053414 76.43823242 64.19018555 C76.45418457 63.14113541 76.47013672 62.09208527 76.48657227 61.01124573 C76.46164041 55.03559141 76.024304 51.53367622 72 47 C71.34 46.67 70.68 46.34 70 46 C70 45.34 70 44.68 70 44 C69.01 43.9071875 69.01 43.9071875 68 43.8125 C64.43139729 42.84600343 61.97324915 41.16149891 58.96484375 39.05859375 C56.7850721 37.6837943 56.7850721 37.6837943 53 38 C53 36.68 53 35.36 53 34 C52.29875 34.0825 51.5975 34.165 50.875 34.25 C47.03925554 33.916457 45.06131259 32.26270931 42 30 C40.515 29.01 40.515 29.01 39 28 C39 27.34 39 26.68 39 26 C38.360625 25.896875 37.72125 25.79375 37.0625 25.6875 C36.381875 25.460625 35.70125 25.23375 35 25 C34.67 24.01 34.34 23.02 34 22 C32.00531118 21.31760646 30.00342734 20.65629516 28 20 C24.28018702 18.09410681 20.63740861 16.05817783 17 14 C17 13.34 17 12.68 17 12 C15.700625 12.12375 15.700625 12.12375 14.375 12.25 C10.21313456 11.94171367 8.32222178 10.43629597 5 8 C4.01 7.67 3.02 7.34 2 7 C0.78125 5.546875 0.78125 5.546875 -0.5 3.75 C-5.4361734 -2.08913195 -11.36912913 -4.61989886 -18.91796875 -5.41015625 C-26.62863389 -5.70334785 -33.79107178 -4.91129793 -41 -2 C-29.0287941 -14.5697662 -12.47878052 -7.33949941 0 0 Z " fill="#0946D1" transform="translate(282,386)"/>
<path d="M0 0 C0.70125 -0.00128906 1.4025 -0.00257813 2.125 -0.00390625 C7.88131041 0.11313518 12.32287463 1.34812199 17.1875 4.375 C17.1875 4.705 17.1875 5.035 17.1875 5.375 C13.8125 5.5 13.8125 5.5 10.1875 5.375 C9.1975 4.385 9.1975 4.385 8.1875 3.375 C-0.11860666 0.57034061 -8.84182924 2.47028701 -16.8125 5.375 C-16.8125 6.035 -16.8125 6.695 -16.8125 7.375 C-27.49077897 12.2603609 -27.49077897 12.2603609 -31.5625 13.9375 C-34.05737578 15.04100275 -36.28543171 16.18854408 -38.625 17.5625 C-41.8125 19.375 -41.8125 19.375 -43.8125 19.375 C-44.039375 20.1175 -44.26625 20.86 -44.5 21.625 C-47.03854908 26.94386473 -51.71871467 28.88229654 -56.8125 31.375 C-57.864375 32.179375 -57.864375 32.179375 -58.9375 33 C-60.8125 34.375 -60.8125 34.375 -62.75 34.8125 C-65.01428282 35.27720673 -65.01428282 35.27720673 -67.08984375 37.265625 C-69.85134155 39.40509245 -72.17912707 40.479882 -75.4375 41.6875 C-82.22681539 44.39819082 -89.3061556 47.81170801 -94.49609375 53.0859375 C-95.8125 54.375 -95.8125 54.375 -97.8125 54.375 C-98.121875 55.15875 -98.43125 55.9425 -98.75 56.75 C-99.8125 59.375 -99.8125 59.375 -100.8125 61.375 C-101.06710332 66.76446016 -101.00494335 72.16738573 -101 77.5625 C-101.0007251 78.3620813 -101.0014502 79.1616626 -101.00219727 79.98547363 C-101.00118038 90.13750221 -100.65182431 100.09543023 -99.52636719 110.19189453 C-98.36565562 121.80525062 -98.68515867 133.4947304 -98.79882812 145.15136719 C-98.80547989 145.97887985 -98.81213165 146.80639252 -98.81898499 147.65898132 C-98.83249395 149.21812577 -98.85077214 150.7772392 -98.8747406 152.33625793 C-98.91251058 156.47624233 -98.51017517 160.30346933 -97.8125 164.375 C-98.1425 164.705 -98.4725 165.035 -98.8125 165.375 C-98.88429964 166.89428038 -98.89642007 168.41667482 -98.875 169.9375 C-98.86597656 170.76378906 -98.85695312 171.59007812 -98.84765625 172.44140625 C-98.83605469 173.07949219 -98.82445312 173.71757813 -98.8125 174.375 C-99.4725 174.045 -100.1325 173.715 -100.8125 173.375 C-101.1425 162.815 -101.4725 152.255 -101.8125 141.375 C-102.4725 141.045 -103.1325 140.715 -103.8125 140.375 C-103.88216467 130.6040425 -103.9353947 120.83314458 -103.96793652 111.06198883 C-103.98355893 106.52430924 -104.0047343 101.9868002 -104.03881836 97.44921875 C-104.07153441 93.06607905 -104.08937875 88.68310289 -104.09713173 84.29985046 C-104.10265333 82.63178434 -104.11343553 80.96372666 -104.12969017 79.29573059 C-104.1516278 76.95021573 -104.1544602 74.60536739 -104.15307617 72.25976562 C-104.163862 71.5778717 -104.17464783 70.89597778 -104.1857605 70.19342041 C-104.14635845 63.9785772 -102.65900573 58.60166868 -98.6875 53.8125 C-97.73875 53.008125 -96.79 52.20375 -95.8125 51.375 C-95.23113281 50.87742187 -94.64976562 50.37984375 -94.05078125 49.8671875 C-87.44078528 44.45328604 -80.15975344 40.10854728 -72.89013672 35.65576172 C-70.9391725 34.45308742 -69.00054157 33.23341615 -67.06640625 32.00390625 C-56.14401714 25.07137218 -44.98280383 18.5596637 -33.77539062 12.10009766 C-31.7016633 10.8927017 -29.6386422 9.66681507 -27.58398438 8.42724609 C-26.53017578 7.79512207 -25.47636719 7.16299805 -24.390625 6.51171875 C-23.4409082 5.93510498 -22.49119141 5.35849121 -21.51269531 4.7644043 C-18.86502485 3.40202703 -16.73176165 2.83761189 -13.8125 2.375 C-12.88050781 2.03210938 -11.94851562 1.68921875 -10.98828125 1.3359375 C-7.28687446 0.21595463 -3.83335091 -0.00730162 0 0 Z " fill="#0469DF" transform="translate(258.8125,379.625)"/>
<path d="M0 0 C0.88042969 -0.02578125 1.76085937 -0.0515625 2.66796875 -0.078125 C10.85120133 0.77577753 17.64352345 4.56739316 24.625 8.6875 C25.51993164 9.20812012 26.41486328 9.72874023 27.33691406 10.26513672 C30.16781337 11.91723728 32.99046707 13.58280753 35.8125 15.25 C36.7701123 15.81122559 37.72772461 16.37245117 38.71435547 16.95068359 C41.50142604 18.58487525 44.2831219 20.22776484 47.0625 21.875 C47.92593018 22.38345459 48.78936035 22.89190918 49.67895508 23.41577148 C50.47068115 23.88958252 51.26240723 24.36339355 52.078125 24.8515625 C52.77711914 25.26744629 53.47611328 25.68333008 54.19628906 26.11181641 C55.8125 27.25 55.8125 27.25 56.8125 29.25 C51.68118387 27.7816296 47.52198445 25.49279141 43 22.75 C42.26587891 22.31220215 41.53175781 21.8744043 40.77539062 21.42333984 C38.45133942 20.03731526 36.1316091 18.64427533 33.8125 17.25 C30.81640116 15.45170526 27.81571925 13.66137153 24.8125 11.875 C24.14371826 11.47087891 23.47493652 11.06675781 22.78588867 10.65039062 C13.10438281 4.89155354 4.36282836 0.98578469 -7.1875 3.25 C-12.90984305 5.08255944 -18.0211472 8.24455718 -23.1875 11.25 C-24.78628792 12.14456386 -26.38661032 13.03638956 -27.98828125 13.92578125 C-47.13441411 24.6350729 -66.12976023 35.7799382 -84.1875 48.25 C-85.16074219 48.90613281 -86.13398438 49.56226563 -87.13671875 50.23828125 C-94.52119008 55.27265806 -99.6846425 59.33413018 -102.1875 68.25 C-102.58370191 71.13114596 -102.62538336 73.9636383 -102.61987305 76.86914062 C-102.6300647 77.68960876 -102.64025635 78.5100769 -102.65075684 79.35540771 C-102.68069873 82.03909297 -102.69012373 84.72242021 -102.69921875 87.40625 C-102.71607942 89.27812875 -102.73423152 91.14999627 -102.75361633 93.02185059 C-102.80097178 97.92737316 -102.83087448 102.8328502 -102.85705566 107.73852539 C-102.88693434 112.75285837 -102.93343948 117.76703469 -102.97851562 122.78125 C-103.06438417 132.60408448 -103.1318024 142.42695133 -103.1875 152.25 C-103.5175 152.25 -103.8475 152.25 -104.1875 152.25 C-104.25708513 141.0275438 -104.31035458 129.80513915 -104.34293652 118.58251095 C-104.35857613 113.37109175 -104.3797834 108.15982043 -104.41381836 102.94848633 C-104.4464724 97.91696791 -104.46436583 92.88559152 -104.47213173 87.8539753 C-104.47766437 85.93667936 -104.4884683 84.01939098 -104.50469017 82.10215569 C-104.52654476 79.41160303 -104.52946357 76.72163335 -104.52807617 74.03100586 C-104.538862 73.24265854 -104.54964783 72.45431122 -104.5607605 71.64207458 C-104.52781688 65.71753231 -103.45435318 60.90177822 -99.48950195 56.26367188 C-94.34923716 52.03106347 -89.00041608 48.30959442 -83.375 44.75 C-82.49062256 44.18321533 -81.60624512 43.61643066 -80.69506836 43.0324707 C-78.19613701 41.43259417 -75.69218681 39.84084337 -73.1875 38.25 C-72.10210937 37.55261719 -71.01671875 36.85523438 -69.8984375 36.13671875 C-67.33693284 34.4932755 -64.76585238 32.86686633 -62.1875 31.25 C-61.14464844 30.59515625 -60.10179687 29.9403125 -59.02734375 29.265625 C-52.99594422 25.51275418 -46.93293591 21.94123202 -40.625 18.671875 C-38.097023 17.27948865 -38.097023 17.27948865 -35.72265625 15.2578125 C-33.11732557 13.19442272 -30.61457603 11.81487744 -27.625 10.375 C-26.58214844 9.86839844 -25.53929687 9.36179687 -24.46484375 8.83984375 C-23.38332031 8.31519531 -22.30179687 7.79054688 -21.1875 7.25 C-18.05012451 5.65353148 -14.91450898 4.05375057 -11.78125 2.44921875 C-7.77355971 0.59626556 -4.40509336 0.07627867 0 0 Z " fill="#048FFC" transform="translate(258.1875,375.75)"/>
<path d="M0 0 C0.763125 0.309375 1.52625 0.61875 2.3125 0.9375 C4.18789677 1.67893593 6.08684652 2.36228217 8 3 C8 3.66 8 4.32 8 5 C8.598125 5.226875 9.19625 5.45375 9.8125 5.6875 C12.67954796 7.40772878 13.53178013 9.00225343 15 12 C15.3465271 15.03312683 15.3465271 15.03312683 15.30615234 18.47338867 C15.29462631 20.43022331 15.29462631 20.43022331 15.28286743 22.42658997 C15.25916688 23.86122081 15.23518112 25.29584698 15.2109375 26.73046875 C15.19642426 28.24080684 15.18330407 29.75115886 15.17147827 31.26152039 C15.14368114 34.49202122 15.10684115 37.72224862 15.06335449 40.95257568 C14.99669194 46.00556315 14.95928098 51.05850965 14.92675781 56.11181641 C14.8744119 63.88505663 14.8012523 71.65786554 14.71242142 79.43077278 C14.66180666 83.86649607 14.61523975 88.30217826 14.578125 92.73803711 C14.54130737 97.13452757 14.49507398 101.53082241 14.44193649 105.927145 C14.42351904 107.57809317 14.40836533 109.22908134 14.39665604 110.88009071 C14.37980212 113.16025976 14.35080758 115.43997031 14.31884766 117.7199707 C14.30552399 119.00974319 14.29220032 120.29951569 14.2784729 121.62837219 C13.81165823 127.28035962 11.80716554 130.83591269 8 135 C7.34 135 6.68 135 6 135 C5.9690625 135.56589844 5.938125 136.13179687 5.90625 136.71484375 C4.51177209 140.23109192 1.60086189 141.65544791 -1.5 143.5625 C-2.13349365 143.96162598 -2.7669873 144.36075195 -3.41967773 144.77197266 C-7.52970333 147.29181289 -11.48844884 149.16905686 -16.15625 150.44921875 C-18.70949767 151.2119474 -20.80546653 152.51338055 -23 154 C-23 153.34 -23 152.68 -23 152 C-18.48982087 147.59060699 -13.37379461 145.21995065 -7.5390625 143.0703125 C-3.09365669 141.19640297 2.77275233 138.45449534 5 134 C5.66 134 6.32 134 7 134 C7 133.34 7 132.68 7 132 C7.66 132 8.32 132 9 132 C11.83846158 120.26769213 12.13406285 109.00607297 12 97 C11.67 97 11.34 97 11 97 C11.03029297 96.20231201 11.06058594 95.40462402 11.09179688 94.58276367 C11.23300579 90.78451555 11.36858239 86.98609738 11.5 83.1875 C11.52400879 82.49570648 11.54801758 81.80391296 11.57275391 81.09115601 C11.95448596 69.84904962 12.08456871 58.63121088 11.96289062 47.3815918 C11.95451172 46.33398682 11.94613281 45.28638184 11.9375 44.20703125 C11.92589844 43.2941333 11.91429687 42.38123535 11.90234375 41.44067383 C11.9946705 39.13319743 12.43845331 37.22600619 13 35 C12.76462537 33.41962748 12.52376966 31.83980056 12.25 30.265625 C11.79988917 26.18649561 12.03982243 22.08444456 12.16015625 17.98828125 C11.99974312 14.99520696 11.50094273 13.53318959 10 11 C9.71125 10.113125 9.4225 9.22625 9.125 8.3125 C8.23446438 5.81210579 8.23446438 5.81210579 5.875 5.1875 C5.25625 5.125625 4.6375 5.06375 4 5 C4 4.34 4 3.68 4 3 C3.01 3 2.02 3 1 3 C0.67 2.01 0.34 1.02 0 0 Z " fill="#084CEA" transform="translate(344,427)"/>
<path d="M0 0 C1.26026798 2.52053595 0.91874445 3.8542098 0.5625 6.625 C0.46066406 7.44226563 0.35882812 8.25953125 0.25390625 9.1015625 C0.17011719 9.72804688 0.08632813 10.35453125 0 11 C0.98742187 10.98839844 1.97484375 10.97679687 2.9921875 10.96484375 C4.27351562 10.95582031 5.55484375 10.94679688 6.875 10.9375 C8.15117188 10.92589844 9.42734375 10.91429687 10.7421875 10.90234375 C14 11 14 11 16 12 C16.02887512 15.64581687 16.04675585 19.29160463 16.0625 22.9375 C16.07087891 23.97841797 16.07925781 25.01933594 16.08789062 26.09179688 C16.09111328 27.08115234 16.09433594 28.07050781 16.09765625 29.08984375 C16.10289307 30.00628662 16.10812988 30.92272949 16.11352539 31.86694336 C16 34 16 34 15 35 C12.64686445 35.07271741 10.29166332 35.08370868 7.9375 35.0625 C6.64714844 35.05347656 5.35679687 35.04445313 4.02734375 35.03515625 C3.02832031 35.02355469 2.02929688 35.01195312 1 35 C0.98969254 35.86221664 0.97938507 36.72443329 0.96876526 37.61277771 C0.87096402 45.72113148 0.76847486 53.82940931 0.66066074 61.93763638 C0.60539364 66.10659016 0.55196774 70.27555091 0.50268555 74.44458008 C0.45509765 78.46463894 0.40275714 82.48460989 0.34705925 86.50456429 C0.32661034 88.04160447 0.30790153 89.57866879 0.29092598 91.11575127 C0.2669378 93.26142006 0.23687617 95.40692129 0.20532227 97.55249023 C0.18977798 98.77604721 0.1742337 99.99960419 0.15821838 101.26023865 C0 104 0 104 -1 105 C-2.62257544 105.0991657 -4.24939831 105.13079777 -5.875 105.1328125 C-6.85984375 105.13410156 -7.8446875 105.13539063 -8.859375 105.13671875 C-9.89578125 105.13285156 -10.9321875 105.12898437 -12 105.125 C-13.55460938 105.13080078 -13.55460938 105.13080078 -15.140625 105.13671875 C-16.12546875 105.13542969 -17.1103125 105.13414062 -18.125 105.1328125 C-19.03507813 105.13168457 -19.94515625 105.13055664 -20.8828125 105.12939453 C-23 105 -23 105 -24 104 C-24.09425595 101.85256451 -24.11742648 99.70198974 -24.11352539 97.55249023 C-24.11367142 96.87934784 -24.11381744 96.20620544 -24.1139679 95.51266479 C-24.11326878 93.27794216 -24.10547652 91.0433019 -24.09765625 88.80859375 C-24.09579206 87.26302638 -24.09436816 85.71745843 -24.09336853 84.17189026 C-24.0895434 80.09642923 -24.07971317 76.02100363 -24.06866455 71.94555664 C-24.05845032 67.78988118 -24.05387089 63.63420001 -24.04882812 59.47851562 C-24.03809089 51.31899413 -24.02101454 43.15950147 -24 35 C-27.63 35 -31.26 35 -35 35 C-35 34.67 -35 34.34 -35 34 C-31.04 34 -27.08 34 -23 34 C-23 56.77 -23 79.54 -23 103 C-15.74 103 -8.48 103 -1 103 C-1 79.9 -1 56.8 -1 33 C4.28 33 9.56 33 15 33 C15 26.4 15 19.8 15 13 C9.72 13 4.44 13 -1 13 C-1.09765625 3.72265625 -1.09765625 3.72265625 -1 1 C-0.67 0.67 -0.34 0.34 0 0 Z " fill="#000001" transform="translate(551,458)"/>
<path d="M0 0 C1.65208436 0.95246953 3.30420069 1.90488409 4.95687866 2.85632324 C13.01308191 7.50058865 21.01197256 12.2397163 29 17 C30.00869141 17.60021973 31.01738281 18.20043945 32.05664062 18.81884766 C37.71768109 22.19081584 43.36453669 25.58547985 49 29 C49.68094727 29.41137207 50.36189453 29.82274414 51.06347656 30.24658203 C52.9195386 31.36911881 54.77290971 32.49592521 56.625 33.625 C57.62789063 34.23601562 58.63078125 34.84703125 59.6640625 35.4765625 C62 37 62 37 64 39 C64 39.66 64 40.32 64 41 C61.03824877 40.38722388 59.61941217 39.74627478 57 38 C55.68 38 54.36 38 53 38 C53 36.68 53 35.36 53 34 C52.29875 34.0825 51.5975 34.165 50.875 34.25 C47.03925554 33.916457 45.06131259 32.26270931 42 30 C40.515 29.01 40.515 29.01 39 28 C39 27.34 39 26.68 39 26 C38.360625 25.896875 37.72125 25.79375 37.0625 25.6875 C36.381875 25.460625 35.70125 25.23375 35 25 C34.67 24.01 34.34 23.02 34 22 C32.00531118 21.31760646 30.00342734 20.65629516 28 20 C24.28018702 18.09410681 20.63740861 16.05817783 17 14 C17 13.34 17 12.68 17 12 C15.700625 12.12375 15.700625 12.12375 14.375 12.25 C10.21313456 11.94171367 8.32222178 10.43629597 5 8 C4.01 7.67 3.02 7.34 2 7 C0.78125 5.546875 0.78125 5.546875 -0.5 3.75 C-5.4361734 -2.08913195 -11.36912913 -4.61989886 -18.91796875 -5.41015625 C-26.62863389 -5.70334785 -33.79107178 -4.91129793 -41 -2 C-29.0287941 -14.5697662 -12.47878052 -7.33949941 0 0 Z " fill="#0756D3" transform="translate(282,386)"/>
<path d="M0 0 C0.66 0 1.32 0 2 0 C3.00122171 3.00366514 3.12112011 4.97739593 3.11352539 8.11401367 C3.11341209 9.67529243 3.11341209 9.67529243 3.11329651 11.26811218 C3.10813522 12.39006485 3.10297394 13.51201752 3.09765625 14.66796875 C3.09553383 16.39289299 3.09553383 16.39289299 3.09336853 18.15266418 C3.08776429 21.83096908 3.07521104 25.50921345 3.0625 29.1875 C3.05748555 31.67903558 3.05292255 34.17057211 3.04882812 36.66210938 C3.03779347 42.77476296 3.02052595 48.88737121 3 55 C8.61 55 14.22 55 20 55 C20 42.79 20 30.58 20 18 C20.33 18 20.66 18 21 18 C21 30.54 21 43.08 21 56 C10.605 56.495 10.605 56.495 0 57 C0 38.19 0 19.38 0 0 Z " fill="#E3E4E3" transform="translate(486,504)"/>
<path d="M0 0 C0.33 0 0.66 0 1 0 C1 6.93 1 13.86 1 21 C5.84649196 20.96049276 5.84649196 20.96049276 10.69287109 20.90991211 C15.77777778 20.88888889 15.77777778 20.88888889 18 22 C18.02887512 25.64581687 18.04675585 29.29160463 18.0625 32.9375 C18.07087891 33.97841797 18.07925781 35.01933594 18.08789062 36.09179688 C18.09272461 37.57583008 18.09272461 37.57583008 18.09765625 39.08984375 C18.10551147 40.46450806 18.10551147 40.46450806 18.11352539 41.86694336 C18 44 18 44 17 45 C12.05 45 7.1 45 2 45 C2 57.21 2 69.42 2 82 C1.01 82.495 1.01 82.495 0 83 C0 69.8 0 56.6 0 43 C5.61 43 11.22 43 17 43 C17 36.4 17 29.8 17 23 C11.39 23 5.78 23 0 23 C0 15.41 0 7.82 0 0 Z " fill="#000102" transform="translate(611,448)"/>
<path d="M0 0 C21.78 0 43.56 0 66 0 C64 4 64 4 61 6 C60.34 5.67 59.68 5.34 59 5 C59 4.01 59 3.02 59 2 C54.92469533 2.1183509 50.84961765 2.24260624 46.7746582 2.37231445 C45.38864017 2.41560218 44.00257094 2.45728164 42.61645508 2.49731445 C40.62308202 2.55516584 38.62989435 2.61929776 36.63671875 2.68359375 C35.43748779 2.72025146 34.23825684 2.75690918 33.00268555 2.79467773 C29.95005651 2.87733025 29.95005651 2.87733025 27 4 C26.67 3.67 26.34 3.34 26 3 C24.66857536 2.92570175 23.33333333 2.91666667 22 2.9375 C20.7934375 2.94910156 20.7934375 2.94910156 19.5625 2.9609375 C18.2940625 2.98027344 18.2940625 2.98027344 17 3 C15.33339676 3.02540554 13.66671982 3.04647385 12 3.0625 C11.2575 3.07410156 10.515 3.08570313 9.75 3.09765625 C8 3 8 3 7 2 C4.67182036 1.63239269 2.3381615 1.29758419 0 1 C0 0.67 0 0.34 0 0 Z " fill="#00172F" transform="translate(266,476)"/>
<path d="M0 0 C0.66 0.33 1.32 0.66 2 1 C0.09928029 2.66312974 -1.80157001 4.32610641 -3.703125 5.98828125 C-5.1953103 7.29521225 -6.68503989 8.60495429 -8.171875 9.91796875 C-8.85765625 10.52253906 -9.5434375 11.12710937 -10.25 11.75 C-11.18585938 12.57757813 -11.18585938 12.57757813 -12.140625 13.421875 C-14 15 -14 15 -16.09399414 16.25830078 C-18.23687819 17.86072422 -18.23687819 17.86072422 -18.43823242 20.49267578 C-18.41092041 21.4670459 -18.3836084 22.44141602 -18.35546875 23.4453125 C-18.33806641 24.52296875 -18.32066406 25.600625 -18.30273438 26.7109375 C-18.26470703 27.83757812 -18.22667969 28.96421875 -18.1875 30.125 C-18.13455376 32.33582843 -18.08629669 34.54677466 -18.04296875 36.7578125 C-18.02153809 37.81645508 -18.00010742 38.87509766 -17.97802734 39.96582031 C-17.99836438 42.77413966 -18.20505141 45.45760106 -18.55078125 48.2421875 C-18.69902344 49.48226562 -18.84726563 50.72234375 -19 52 C-18.67 52.33 -18.34 52.66 -18 53 C-18.17635452 55.69082872 -18.61835921 58.32851446 -19 61 C-19.33 61 -19.66 61 -20 61 C-20.8176949 55.95308995 -21.1848687 51.02191225 -21.23828125 45.90625 C-21.246353 45.15589478 -21.25442474 44.40553955 -21.26274109 43.63244629 C-21.27648405 42.05593105 -21.28724931 40.47938729 -21.29516602 38.90283203 C-21.30672265 37.30085443 -21.32723238 35.69891641 -21.35668945 34.09716797 C-21.39951764 31.76243378 -21.41554875 29.42882891 -21.42578125 27.09375 C-21.45204338 26.03250916 -21.45204338 26.03250916 -21.47883606 24.9498291 C-21.45256874 18.86593803 -19.6467034 14.62989651 -15.30834961 10.3190918 C-14.48862671 9.76475464 -14.48862671 9.76475464 -13.65234375 9.19921875 C-13.04712891 8.77962891 -12.44191406 8.36003906 -11.81835938 7.92773438 C-11.19767578 7.51845703 -10.57699219 7.10917969 -9.9375 6.6875 C-9.31294922 6.25888672 -8.68839844 5.83027344 -8.04492188 5.38867188 C-6.37293724 4.24487022 -4.68713231 3.12133824 -3 2 C-2.01 1.34 -1.02 0.68 0 0 Z " fill="#0279EF" transform="translate(178,422)"/>
<path d="M0 0 C0.66 0.33 1.32 0.66 2 1 C-3.86616893 5.30100889 -9.79028751 9.06610533 -16.21484375 12.47265625 C-20.00282358 14.54993551 -23.61338343 16.86119923 -27.234375 19.21484375 C-29.1029766 20.42098913 -30.98919766 21.60020236 -32.890625 22.75390625 C-40.95801244 27.68030268 -47.85178142 32.11331732 -50.51171875 41.578125 C-51.34115864 45.69214684 -51.7465903 49.81437079 -52 54 C-52.66 54 -53.32 54 -54 54 C-54.46557053 44.61961592 -53.85999568 38.12669952 -47.72265625 30.7890625 C-42.49304374 25.02223366 -36.10100963 21.35206953 -29.4375 17.5 C-28.18228648 16.76001377 -26.92789536 16.01863082 -25.67431641 15.27587891 C-23.22726532 13.82812397 -20.77589432 12.38817075 -18.32080078 10.95410156 C-15.49303713 9.29012419 -12.69050254 7.59634065 -9.90234375 5.8671875 C-9.20246338 5.43470703 -8.50258301 5.00222656 -7.78149414 4.55664062 C-6.01765968 3.46342014 -4.25487695 2.36850323 -2.4921875 1.2734375 C-1.66976562 0.85320312 -0.84734375 0.43296875 0 0 Z " fill="#037DF2" transform="translate(187,390)"/>
<path d="M0 0 C2.64752004 2.57784846 4.94432065 4.91648098 7 8 C9.58380177 8.25030977 9.58380177 8.25030977 12 8 C12 8.99 12 9.98 12 11 C13.670625 11.4021875 13.670625 11.4021875 15.375 11.8125 C19 13 19 13 21 16 C23.86408891 17.45604386 23.86408891 17.45604386 27.125 18.6875 C28.22070312 19.12449219 29.31640625 19.56148437 30.4453125 20.01171875 C31.28835937 20.33785156 32.13140625 20.66398438 33 21 C33 21.66 33 22.32 33 23 C34.98 23.66 36.96 24.32 39 25 C39 25.66 39 26.32 39 27 C40.98 27.33 42.96 27.66 45 28 C45 28.99 45 29.98 45 31 C45.61875 31.12375 46.2375 31.2475 46.875 31.375 C49 32 49 32 51 34 C44.40602761 33.19021392 39.56277868 30.87303869 33.9375 27.5 C33.2580835 27.09595947 32.57866699 26.69191895 31.87866211 26.27563477 C30.21207203 25.24642663 28.60002092 24.12992255 27 23 C27 22.34 27 21.68 27 21 C26.4112207 20.87310791 25.82244141 20.74621582 25.21582031 20.61547852 C21.76086634 19.65581137 18.81948556 17.74363022 15.75 15.9375 C15.1003125 15.56044922 14.450625 15.18339844 13.78125 14.79492188 C12.18494909 13.86765885 10.59212471 12.93441544 9 12 C9 11.34 9 10.68 9 10 C8.443125 9.938125 7.88625 9.87625 7.3125 9.8125 C3.95735428 8.63366502 2.25870937 6.69790286 0 4 C0 2.68 0 1.36 0 0 Z " fill="#0949E7" transform="translate(160,554)"/>
<path d="M0 0 C0.66 0.33 1.32 0.66 2 1 C1.18917969 1.99257813 0.37835938 2.98515625 -0.45703125 4.0078125 C-7.27504319 12.36811719 -14.0173505 20.77988709 -20.65722656 29.28222656 C-22.93233953 32.19271654 -25.21675416 35.09588926 -27.5 38 C-28.41017051 39.15884297 -29.32032674 40.31769715 -30.23046875 41.4765625 C-32.12649346 43.88993014 -34.02529198 46.30108428 -35.92578125 48.7109375 C-40.68974818 54.75557507 -45.42138313 60.8126799 -50 67 C-50.66 66.34 -51.32 65.68 -52 65 C-49.16408206 61.16030354 -46.32937395 57.33678793 -43.25 53.6875 C-40.93828317 51.02529463 -40.93828317 51.02529463 -39 48 C-35.41052632 43.13684211 -35.41052632 43.13684211 -32 42 C-31.3075461 40.3438811 -30.64534099 38.67503947 -30 37 C-28.72286243 35.24925725 -27.38581867 33.54103936 -26 31.875 C-23.86263907 29.28973622 -21.86241106 26.79361659 -20 24 C-19.34 24 -18.68 24 -18 24 C-17.731875 23.443125 -17.46375 22.88625 -17.1875 22.3125 C-13.52173913 15.17391304 -13.52173913 15.17391304 -10 14 C-8.99083967 12.23408113 -8.99083967 12.23408113 -8 10 C-5.64239168 6.22782668 -3.26241842 3.02938853 0 0 Z " fill="#03A0F5" transform="translate(246,432)"/>
<path d="M0 0 C0.33 0 0.66 0 1 0 C2.94762073 16.29393413 3.17338844 32.38233715 3.01367188 48.76782227 C3.00702011 49.5965686 3.00036835 50.42531494 2.99351501 51.2791748 C2.98001757 52.84009949 2.96174958 54.40099331 2.9377594 55.96179199 C2.89998166 60.10159509 3.30235604 63.92865147 4 68 C3.505 68.495 3.505 68.495 3 69 C2.92820036 70.51928038 2.91607993 72.04167482 2.9375 73.5625 C2.94652344 74.38878906 2.95554688 75.21507812 2.96484375 76.06640625 C2.97644531 76.70449219 2.98804688 77.34257813 3 78 C2.34 77.67 1.68 77.34 1 77 C-0.05981812 51.33041596 -0.11251575 25.68821207 0 0 Z " fill="#0663EA" transform="translate(157,476)"/>
<path d="M0 0 C0.70125 -0.00128906 1.4025 -0.00257813 2.125 -0.00390625 C7.88131041 0.11313518 12.32287463 1.34812199 17.1875 4.375 C17.1875 4.705 17.1875 5.035 17.1875 5.375 C13.8125 5.5 13.8125 5.5 10.1875 5.375 C9.5275 4.715 8.8675 4.055 8.1875 3.375 C-0.11860666 0.57034061 -8.84182924 2.47028701 -16.8125 5.375 C-16.8125 6.035 -16.8125 6.695 -16.8125 7.375 C-27.49077897 12.2603609 -27.49077897 12.2603609 -31.5625 13.9375 C-34.05737578 15.04100275 -36.28543171 16.18854408 -38.625 17.5625 C-41.8125 19.375 -41.8125 19.375 -43.8125 19.375 C-44.1425 20.695 -44.4725 22.015 -44.8125 23.375 C-46.7925 23.375 -48.7725 23.375 -50.8125 23.375 C-48.13451904 20.3176881 -44.81847081 18.42875505 -41.3515625 16.3984375 C-40.72398041 16.02772125 -40.09639832 15.657005 -39.44979858 15.27505493 C-38.12482112 14.49448617 -36.79842146 13.71632716 -35.47070312 12.94042969 C-33.44661892 11.75533908 -31.43023618 10.55786184 -29.4140625 9.359375 C-28.12284585 8.60079598 -26.83119316 7.84295858 -25.5390625 7.0859375 C-24.64037949 6.5500148 -24.64037949 6.5500148 -23.72354126 6.00326538 C-20.4193371 4.08867815 -17.58517703 2.93185872 -13.8125 2.375 C-12.88050781 2.03210938 -11.94851562 1.68921875 -10.98828125 1.3359375 C-7.28687446 0.21595463 -3.83335091 -0.00730162 0 0 Z " fill="#0465DB" transform="translate(258.8125,379.625)"/>
<path d="M0 0 C0.33 0 0.66 0 1 0 C1 5.61 1 11.22 1 17 C-4.28 17 -9.56 17 -15 17 C-15 31.85 -15 46.7 -15 62 C-17 60 -17 60 -17.24723816 58.09580994 C-17.24581314 57.32161209 -17.24438812 56.54741425 -17.24291992 55.74975586 C-17.24599655 54.87222153 -17.24907318 53.99468719 -17.25224304 53.09056091 C-17.24505753 52.14157425 -17.23787201 51.19258759 -17.23046875 50.21484375 C-17.23001053 49.24341934 -17.22955231 48.27199493 -17.2290802 47.27113342 C-17.22605624 45.21581807 -17.21816566 43.16050505 -17.20581055 41.10522461 C-17.18755503 37.94702095 -17.18530081 34.78911027 -17.18554688 31.63085938 C-17.18063182 29.63801828 -17.17480355 27.64517918 -17.16796875 25.65234375 C-17.16685593 24.70133286 -17.1657431 23.75032196 -17.16459656 22.77049255 C-17.15821671 21.89611038 -17.15183685 21.02172821 -17.14526367 20.12084961 C-17.14145187 19.34744736 -17.13764008 18.5740451 -17.13371277 17.77720642 C-17 16 -17 16 -16 15 C-13.30345146 14.92680379 -10.63308542 14.90757463 -7.9375 14.9375 C-6.79958008 14.94426758 -6.79958008 14.94426758 -5.63867188 14.95117188 C-3.75908129 14.9629932 -1.87953101 14.98092922 0 15 C0 10.05 0 5.1 0 0 Z " fill="#F4F5F5" transform="translate(626,474)"/>
<path d="M0 0 C0.33 0.66 0.66 1.32 1 2 C5.29 2 9.58 2 14 2 C14.07407457 8.49614963 14.12856655 14.99205423 14.16479492 21.48852539 C14.17989525 23.69918092 14.20037709 25.90980643 14.22631836 28.12036133 C14.26264655 31.29515993 14.27971384 34.46956297 14.29296875 37.64453125 C14.30845261 38.63524124 14.32393646 39.62595123 14.33988953 40.64668274 C14.34022942 42.02777473 14.34022942 42.02777473 14.34057617 43.43676758 C14.34723801 44.2472908 14.35389984 45.05781403 14.36076355 45.89289856 C14 48 14 48 11 51 C11 35.49 11 19.98 11 4 C7.7 4 4.4 4 1 4 C0.67 2.68 0.34 1.36 0 0 Z " fill="#303336" transform="translate(576,489)"/>
<path d="M0 0 C-3.41016016 3.71105664 -6.45515639 5.8726264 -11 8 C-11.70125 8.53625 -12.4025 9.0725 -13.125 9.625 C-15 11 -15 11 -16.9375 11.4375 C-19.19273795 11.89446482 -19.19273795 11.89446482 -21.1875 13.875 C-24.85306004 16.64453425 -28.62445128 17.74167226 -33 19 C-28.09232953 13.90016171 -22.16064707 10.39464226 -16 7 C-16 6.34 -16 5.68 -16 5 C-11.05598191 1.14053924 -6.34247841 -2.33670257 0 0 Z " fill="#0278EA" transform="translate(213,403)"/>
<path d="M0 0 C0.33 0 0.66 0 1 0 C1.04898438 1.13179687 1.09796875 2.26359375 1.1484375 3.4296875 C1.22346514 4.91148339 1.29901297 6.393253 1.375 7.875 C1.4059375 8.62136719 1.436875 9.36773438 1.46875 10.13671875 C1.55643831 14.53473188 1.55643831 14.53473188 4 18 C4.28875 18.78375 4.5775 19.5675 4.875 20.375 C6.14958459 23.34903071 7.54486651 24.91685643 10 27 C10.99 27.33 11.98 27.66 13 28 C13 28.66 13 29.32 13 30 C13.71929687 30.26683594 14.43859375 30.53367187 15.1796875 30.80859375 C18.02481555 32.01048302 20.5051535 33.43210623 23.125 35.0625 C25.80251948 36.72679402 27.99972402 37.99990801 31 39 C31 39.66 31 40.32 31 41 C32.2065625 41.433125 32.2065625 41.433125 33.4375 41.875 C36 43 36 43 37 45 C31.1747061 42.85567077 26.0570065 39.57141973 20.7890625 36.34277344 C19.01140082 35.25696371 17.22481207 34.18701582 15.4375 33.1171875 C3.40962672 25.81925344 3.40962672 25.81925344 0 19 C-0.08342159 17.55151418 -0.10732861 16.09929131 -0.09765625 14.6484375 C-0.09443359 13.79765625 -0.09121094 12.946875 -0.08789062 12.0703125 C-0.07951172 11.18085937 -0.07113281 10.29140625 -0.0625 9.375 C-0.05798828 8.4778125 -0.05347656 7.580625 -0.04882812 6.65625 C-0.03702591 4.43743352 -0.02056155 2.21874982 0 0 Z " fill="#0A43D2" transform="translate(156,536)"/>
<path d="M0 0 C0.33 0.66 0.66 1.32 1 2 C1.66 2.33 2.32 2.66 3 3 C3.25348797 32.92328032 3.25348797 32.92328032 2 41 C1.34 41.66 0.68 42.32 0 43 C0 28.81 0 14.62 0 0 Z " fill="#017BFA" transform="translate(133,445)"/>
<path d="M0 0 C0.33 0.99 0.66 1.98 1 3 C-2.74841226 5.29427141 -6.49899969 7.58496277 -10.25 9.875 C-11.31347656 10.52597656 -12.37695312 11.17695313 -13.47265625 11.84765625 C-14.49746094 12.47285156 -15.52226562 13.09804688 -16.578125 13.7421875 C-17.52075195 14.3182373 -18.46337891 14.89428711 -19.43457031 15.48779297 C-25.39296093 19 -25.39296093 19 -29 19 C-29 18.34 -29 17.68 -29 17 C-28.34 17 -27.68 17 -27 17 C-26.67 16.34 -26.34 15.68 -26 15 C-24.68857566 14.29120637 -23.34816575 13.63613781 -22 13 C-19.74255662 11.74061348 -17.49303952 10.47198075 -15.25 9.1875 C-14.63108887 8.83365234 -14.01217773 8.47980469 -13.37451172 8.11523438 C-8.84690002 5.51449274 -4.39838677 2.81496753 0 0 Z " fill="#061C33" transform="translate(222,366)"/>
<path d="M0 0 C-7.41420052 5.05025253 -14.9149127 10.07771509 -23 14 C-23.66 13.34 -24.32 12.68 -25 12 C-20.5728418 7.20272568 -6.51420606 -3.25710303 0 0 Z " fill="#0276EB" transform="translate(239,389)"/>
<path d="M0 0 C0.33 0 0.66 0 1 0 C1.06058594 1.05058594 1.12117187 2.10117187 1.18359375 3.18359375 C1.6800884 12.0769244 1.6800884 12.0769244 2.5625 20.9375 C3.01921065 24.61929044 3.02325271 28.21224505 2.96484375 31.91796875 C3.01125235 34.66638923 3.52706794 37.29753106 4 40 C3.505 40.495 3.505 40.495 3 41 C2.92820036 42.51928038 2.91607993 44.04167482 2.9375 45.5625 C2.94652344 46.38878906 2.95554688 47.21507812 2.96484375 48.06640625 C2.97644531 48.70449219 2.98804688 49.34257813 3 50 C2.34 49.67 1.68 49.34 1 49 C-0.19388403 14.30433296 -0.19388403 14.30433296 0 0 Z " fill="#0852E9" transform="translate(157,504)"/>
<path d="M0 0 C0 0.66 0 1.32 0 2 C-2.01620694 3.43587438 -4.00792234 4.7297534 -6.125 6 C-6.69476563 6.35578125 -7.26453125 6.7115625 -7.8515625 7.078125 C-12.67934522 10.01868356 -17.52204732 11.73585707 -23 13 C-23 12.01 -23 11.02 -23 10 C-22.071875 9.62875 -21.14375 9.2575 -20.1875 8.875 C-15.77180959 6.99675132 -11.63346298 4.65174877 -7.453125 2.3046875 C-4.92997814 0.96275908 -2.88855225 0 0 0 Z " fill="#0842E9" transform="translate(321,581)"/>
<path d="M0 0 C7.26 0 14.52 0 22 0 C22.99 1.98 23.98 3.96 25 6 C26.29241051 7.69859667 27.61490475 9.37609523 29 11 C25.20620942 9.50958227 23.31656242 7.30937488 21 4 C21 3.34 21 2.68 21 2 C14.73 2 8.46 2 2 2 C1.67 3.32 1.34 4.64 1 6 C0.67 4.02 0.34 2.04 0 0 Z " fill="#DFE0E0" transform="translate(639,534)"/>
<path d="M0 0 C0.66 0 1.32 0 2 0 C0.65961958 2.86272909 -0.86239679 5.2931052 -2.79296875 7.79296875 C-3.33800049 8.50203369 -3.88303223 9.21109863 -4.44458008 9.94165039 C-5.01974365 10.68278076 -5.59490723 11.42391113 -6.1875 12.1875 C-6.77104248 12.94474365 -7.35458496 13.7019873 -7.95581055 14.48217773 C-9.6336316 16.65758043 -11.3159471 18.82941972 -13 21 C-13.79664063 22.02867187 -14.59328125 23.05734375 -15.4140625 24.1171875 C-16.93883979 26.08120104 -18.46654771 28.04275726 -20 30 C-20.66 29.34 -21.32 28.68 -22 28 C-19.16408206 24.16030354 -16.32937395 20.33678793 -13.25 16.6875 C-10.93828317 14.02529463 -10.93828317 14.02529463 -9 11 C-5.41052632 6.13684211 -5.41052632 6.13684211 -2 5 C-0.78130071 2.49552484 -0.78130071 2.49552484 0 0 Z " fill="#0493F0" transform="translate(216,469)"/>
<path d="M0 0 C0.33 0 0.66 0 1 0 C1.33 4.95 1.66 9.9 2 15 C3.65 14.67 5.3 14.34 7 14 C5.5129879 18.59621922 3.20187872 21.46972347 0 25 C-0.33 25 -0.66 25 -1 25 C-1.02727345 22.33326258 -1.04696948 19.66681131 -1.0625 17 C-1.07087891 16.25621094 -1.07925781 15.51242187 -1.08789062 14.74609375 C-1.10966272 9.73851156 -0.71541549 4.95720968 0 0 Z " fill="#021D46" transform="translate(249,560)"/>
<path d="M0 0 C0.33 0 0.66 0 1 0 C1.05895136 4.24993992 1.0939116 8.49977216 1.125 12.75 C1.14175781 13.93722656 1.15851563 15.12445312 1.17578125 16.34765625 C1.21818871 24.10822173 0.55083348 31.39444686 -1 39 C-1.33 39 -1.66 39 -2 39 C-2.23389114 25.82413246 -1.78616826 13.06135544 0 0 Z " fill="#011F48" transform="translate(252,517)"/>
<path d="M0 0 C2.20746516 3.31119773 2.24761779 4.33380249 2.23046875 8.18359375 C2.22853516 9.19357422 2.22660156 10.20355469 2.22460938 11.24414062 C2.21236328 12.29794922 2.20011719 13.35175781 2.1875 14.4375 C2.18685547 15.48744141 2.18621094 16.53738281 2.18554688 17.61914062 C2.16079955 21.93342392 2.1354214 25.82456115 1 30 C0.97203896 32.26883875 1.06312745 34.51465727 1.16015625 36.78125 C0.97863815 39.29593975 0.17261232 40.79531533 -1 43 C-1.11995 28.62629889 -0.94730645 14.34492627 0 0 Z " fill="#0499FC" transform="translate(270,407)"/>
<path d="M0 0 C4.12684994 0.68263683 7.49754564 2.80932551 11.0625 4.875 C11.68705078 5.22691406 12.31160156 5.57882812 12.95507812 5.94140625 C15.98922423 7.6835307 18.7070224 9.32905906 21 12 C18 13 18 13 16.00708008 12.13549805 C15.26868896 11.68215088 14.53029785 11.22880371 13.76953125 10.76171875 C12.96708984 10.27123047 12.16464844 9.78074219 11.33789062 9.27539062 C10.08782227 8.48938477 10.08782227 8.48938477 8.8125 7.6875 C7.96751953 7.17509766 7.12253906 6.66269531 6.25195312 6.13476562 C1.637116 3.27796169 1.637116 3.27796169 0 2 C0 1.34 0 0.68 0 0 Z " fill="#051D35" transform="translate(326,385)"/>
<path d="M0 0 C0.99 0.66 1.98 1.32 3 2 C-2.49349789 5.81492909 -7.95092327 9.14043646 -14 12 C-14.99 11.34 -15.98 10.68 -17 10 C-15.28490234 9.04287109 -15.28490234 9.04287109 -13.53515625 8.06640625 C-12.04422197 7.23185813 -10.55333921 6.39721796 -9.0625 5.5625 C-8.30775391 5.14162109 -7.55300781 4.72074219 -6.77539062 4.28710938 C-6.05673828 3.88427734 -5.33808594 3.48144531 -4.59765625 3.06640625 C-3.93258057 2.69459229 -3.26750488 2.32277832 -2.58227539 1.93969727 C-1.01422168 1.09652286 -1.01422168 1.09652286 0 0 Z " fill="#071528" transform="translate(296,624)"/>
<path d="M0 0 C0.33 0.66 0.66 1.32 1 2 C3.33163378 2.67258667 5.6652039 3.33847444 8 4 C10.9375 5.5 10.9375 5.5 13 7 C13 7.66 13 8.32 13 9 C14.32 9 15.64 9 17 9 C17 9.66 17 10.32 17 11 C17.99 11 18.98 11 20 11 C19.67 11.66 19.34 12.32 19 13 C15.08071029 12.29875454 11.96309097 10.47276004 8.5 8.5625 C3.29449794 5.69595358 3.29449794 5.69595358 -2 3 C-1.34 3 -0.68 3 0 3 C0 2.01 0 1.02 0 0 Z " fill="#061D36" transform="translate(272,352)"/>
<path d="M0 0 C1.54897985 3.0979597 0.83239539 6.26216552 0.5625 9.625 C0.51029297 10.33140625 0.45808594 11.0378125 0.40429688 11.765625 C0.27458793 13.51079987 0.13795046 15.25545725 0 17 C4.62 17 9.24 17 14 17 C14 17.33 14 17.66 14 18 C11.5211787 18.19389096 9.04219069 18.38040123 6.5625 18.5625 C5.85544922 18.61857422 5.14839844 18.67464844 4.41992188 18.73242188 C2.61572163 18.86190993 0.80768048 18.93521608 -1 19 C-2.91811433 17.08188567 -2.17438668 13.73410709 -2.1875 11.1875 C-2.20167969 9.94355469 -2.21585938 8.69960938 -2.23046875 7.41796875 C-2.01852668 4.27476006 -1.66475807 2.61228836 0 0 Z " fill="#E0E1E0" transform="translate(550,454)"/>
<path d="M0 0 C0.33 0 0.66 0 1 0 C1 1.98 1 3.96 1 6 C0.01 6.33 -0.98 6.66 -2 7 C-2.99 8.485 -2.99 8.485 -4 10 C-5.31387169 11.35251497 -6.64426252 12.68945377 -8 14 C-8.99 13.67 -9.98 13.34 -11 13 C-9.19096681 10.83035229 -7.37801121 8.66421535 -5.5625 6.5 C-5.04623047 5.87996094 -4.52996094 5.25992187 -3.99804688 4.62109375 C-2.68735732 3.06197284 -1.34602708 1.52871719 0 0 Z " fill="#012141" transform="translate(266,410)"/>
<path d="M0 0 C2.31 1.65 4.62 3.3 7 5 C7.33 4.34 7.66 3.68 8 3 C8.2475 3.598125 8.495 4.19625 8.75 4.8125 C10.16370012 7.28647521 11.65055383 8.43370255 14 10 C13.01 10.33 12.02 10.66 11 11 C8.64661627 9.81305055 6.52067269 8.60140039 4.3125 7.1875 C3.70599609 6.81818359 3.09949219 6.44886719 2.47460938 6.06835938 C0.94204708 5.10813755 -0.53458095 4.05986799 -2 3 C-2 2.34 -2 1.68 -2 1 C-1.34 0.67 -0.68 0.34 0 0 Z " fill="#051C33" transform="translate(350,397)"/>
<path d="M0 0 C0.66 0.99 1.32 1.98 2 3 C0.33333333 4.66666667 -1.33333333 6.33333333 -3 8 C-3.6496875 8.928125 -3.6496875 8.928125 -4.3125 9.875 C-6.27509469 12.34641553 -8.49070836 14.1010766 -11 16 C-9.55049595 11.64352355 -7.32252888 8.68242711 -4.375 5.1875 C-3.55773437 4.21167969 -2.74046875 3.23585938 -1.8984375 2.23046875 C-1.27195313 1.49441406 -0.64546875 0.75835937 0 0 Z " fill="#01274F" transform="translate(197,497)"/>
<path d="M0 0 C0.55429687 0.32226562 1.10859375 0.64453125 1.6796875 0.9765625 C-1.39780243 1.93740777 -3.53958605 1.91627144 -6.6953125 1.3515625 C-11.14956512 0.7683543 -13.3989716 1.71089887 -17.3203125 3.9765625 C-20.6953125 4.6640625 -20.6953125 4.6640625 -23.3203125 4.9765625 C-23.3203125 4.3165625 -23.3203125 3.6565625 -23.3203125 2.9765625 C-16.0959385 -0.53376239 -7.80739218 -3.44366457 0 0 Z " fill="#036DEC" transform="translate(265.3203125,382.0234375)"/>
<path d="M0 0 C8.91 0 17.82 0 27 0 C23 2 23 2 20 3 C19.67 2.67 19.34 2.34 19 2 C17.65732587 1.91368126 16.31025678 1.89293527 14.96484375 1.90234375 C14.15595703 1.90556641 13.34707031 1.90878906 12.51367188 1.91210938 C11.66353516 1.92048828 10.81339844 1.92886719 9.9375 1.9375 C9.08349609 1.94201172 8.22949219 1.94652344 7.34960938 1.95117188 C5.23304337 1.96299627 3.11651315 1.98093231 1 2 C0.67 1.34 0.34 0.68 0 0 Z " fill="#012446" transform="translate(273,477)"/>
<path d="M0 0 C1.65 0 3.3 0 5 0 C5 0.99 5 1.98 5 3 C5.680625 3.2475 6.36125 3.495 7.0625 3.75 C10.56865083 5.24197908 13.71620368 7.06835511 17 9 C17 9.33 17 9.66 17 10 C12.15157102 10.57040341 9.86244089 8.77088151 6 6 C5.01 5.67 4.02 5.34 3 5 C1.3125 2.4375 1.3125 2.4375 0 0 Z " fill="#0663E2" transform="translate(281,388)"/>
<path d="M0 0 C0.66 0.33 1.32 0.66 2 1 C-1.20229933 3.65333373 -4.39659058 5.92803958 -8 8 C-8.845625 8.5775 -9.69125 9.155 -10.5625 9.75 C-13.40266231 11.20649349 -14.07953887 10.91380179 -17 10 C-14.21605957 8.29949343 -11.42172475 6.61688375 -8.625 4.9375 C-7.8309375 4.45216797 -7.036875 3.96683594 -6.21875 3.46679688 C-5.45820313 3.01240234 -4.69765625 2.55800781 -3.9140625 2.08984375 C-2.8614624 1.45357056 -2.8614624 1.45357056 -1.78759766 0.80444336 C-0.90273682 0.4062439 -0.90273682 0.4062439 0 0 Z " fill="#0474F3" transform="translate(217,372)"/>
<path d="M0 0 C3.70667507 0.4680417 6.4711871 0.39765723 10.125 -0.4375 C12.9375 0 12.9375 0 15.125 0.5625 C15.125 0.8925 15.125 1.2225 15.125 1.5625 C7.68506938 3.28255735 -0.42107684 3.21892737 -7.875 1.5625 C-4.45028821 -0.72064119 -3.87615138 -0.57140833 0 0 Z " fill="#0243E6" transform="translate(254.875,637.4375)"/>
<path d="M0 0 C0 4.61538462 0 4.61538462 -1 7 C-2.66666667 7.66666667 -4.33333333 8.33333333 -6 9 C-6.3721042 10.32303717 -6.70630173 11.65737935 -7 13 C-9.0625 14.25 -9.0625 14.25 -11 15 C-9.58319756 10.67953102 -7.46236215 7.99538801 -4.375 4.6875 C-3.55773437 3.80449219 -2.74046875 2.92148437 -1.8984375 2.01171875 C-0.95871094 1.01591797 -0.95871094 1.01591797 0 0 Z " fill="#011B39" transform="translate(254,425)"/>
<path d="M0 0 C0.99 0.66 1.98 1.32 3 2 C1.42065361 2.98558449 -0.16365173 3.96322541 -1.75 4.9375 C-3.07257813 5.75541016 -3.07257813 5.75541016 -4.421875 6.58984375 C-6.68399917 7.82715712 -8.48566325 8.53590513 -11 9 C-11.33 8.34 -11.66 7.68 -12 7 C-8.04 4.69 -4.08 2.38 0 0 Z " fill="#071628" transform="translate(350,592)"/>
<path d="M0 0 C6.72253472 3.17180135 12.91805372 6.72500877 19 11 C18.01 11.495 18.01 11.495 17 12 C14.64018187 11.06421005 12.30368736 10.06652192 10 9 C10 8.34 10 7.68 10 7 C8.63875 6.5978125 8.63875 6.5978125 7.25 6.1875 C4.27008166 5.09868368 2.31409641 4.13608899 0 2 C0 1.34 0 0.68 0 0 Z " fill="#036AEF" transform="translate(321,384)"/>
<path d="M0 0 C-0.33 0.99 -0.66 1.98 -1 3 C-3.33333333 3.66666667 -5.66666667 4.33333333 -8 5 C-8.33 5.99 -8.66 6.98 -9 8 C-9.99 7.67 -10.98 7.34 -12 7 C-10.84625061 3.53875184 -10.12298029 3.11687417 -7.125 1.25 C-6.42632812 0.80140625 -5.72765625 0.3528125 -5.0078125 -0.109375 C-3 -1 -3 -1 0 0 Z " fill="#08172B" transform="translate(319,613)"/>
<path d="M0 0 C1.32 0.33 2.64 0.66 4 1 C2.2308289 3.10558394 0.4597399 5.20950158 -1.3125 7.3125 C-1.81201172 7.90740234 -2.31152344 8.50230469 -2.82617188 9.11523438 C-3.31279297 9.69208984 -3.79941406 10.26894531 -4.30078125 10.86328125 C-4.74591064 11.39219971 -5.19104004 11.92111816 -5.6496582 12.46606445 C-7.03986605 14.04528627 -8.49726496 15.52812987 -10 17 C-9.58150577 12.11756726 -7.50793937 10.25737227 -4 7 C-1.98187649 4.54942146 -1.0143456 3.04303681 0 0 Z " fill="#0591F6" transform="translate(266,405)"/>
<path d="M0 0 C0.78375 0.04125 1.5675 0.0825 2.375 0.125 C1.14236651 3.82290046 0.17447549 4.0604846 -3.1875 5.8125 C-4.42693359 6.46798828 -4.42693359 6.46798828 -5.69140625 7.13671875 C-6.32949219 7.46285156 -6.96757812 7.78898437 -7.625 8.125 C-8.285 7.465 -8.945 6.805 -9.625 6.125 C-8.84125 5.50625 -8.0575 4.8875 -7.25 4.25 C-2.125 0.10119048 -2.125 0.10119048 0 0 Z " fill="#06203C" transform="translate(165.625,399.875)"/>
<path d="M0 0 C0.33 0.99 0.66 1.98 1 3 C-2.5087188 6.09592835 -5.49197399 7.74194623 -10 9 C-10 8.01 -10 7.02 -10 6 C-7.8125 4.39453125 -7.8125 4.39453125 -5 2.8125 C-4.071875 2.28269531 -3.14375 1.75289062 -2.1875 1.20703125 C-1.465625 0.80871094 -0.74375 0.41039062 0 0 Z " fill="#07152A" transform="translate(331,603)"/>
<path d="M0 0 C0.495 0.37125 0.99 0.7425 1.5 1.125 C0.25579353 1.6595256 -0.99570936 2.17708611 -2.25 2.6875 C-2.94609375 2.97753906 -3.6421875 3.26757812 -4.359375 3.56640625 C-6.80012784 4.20331803 -8.1403655 3.92748831 -10.5 3.125 C-10.5 2.465 -10.5 1.805 -10.5 1.125 C-3.11538462 -1.09038462 -3.11538462 -1.09038462 0 0 Z " fill="#08172E" transform="translate(275.5,637.875)"/>
<path d="M0 0 C2.31 1.65 4.62 3.3 7 5 C6.01 5.33 5.02 5.66 4 6 C3.67 5.67 3.34 5.34 3 5 C2.67 6.32 2.34 7.64 2 9 C1.34 9 0.68 9 0 9 C0 6.03 0 3.06 0 0 Z " fill="#070809" transform="translate(840,552)"/>
<path d="M0 0 C0.33 0.99 0.66 1.98 1 3 C-1.64 5.97 -4.28 8.94 -7 12 C-7.66 11.67 -8.32 11.34 -9 11 C-6.03 7.37 -3.06 3.74 0 0 Z " fill="#022046" transform="translate(210,480)"/>
<path d="M0 0 C-1 3 -1 3 -3.9375 4.75 C-5.4534375 5.36875 -5.4534375 5.36875 -7 6 C-7.66 5.67 -8.32 5.34 -9 5 C-8.67 4.01 -8.34 3.02 -8 2 C-5.10441559 0.5522078 -3.25811062 0 0 0 Z " fill="#051F3B" transform="translate(185,390)"/>
<path d="M0 0 C0.99 0.66 1.98 1.32 3 2 C2.34 2 1.68 2 1 2 C1 2.66 1 3.32 1 4 C-2.465 5.485 -2.465 5.485 -6 7 C-6 6.01 -6 5.02 -6 4 C-3 1.8125 -3 1.8125 0 0 Z " fill="#07152A" transform="translate(373,578)"/>
<path d="M0 0 C0.66 0 1.32 0 2 0 C2.22162329 1.62324086 2.42689803 3.248721 2.625 4.875 C2.74101562 5.77992188 2.85703125 6.68484375 2.9765625 7.6171875 C2.98429688 8.40351562 2.99203125 9.18984375 3 10 C2.34 10.66 1.68 11.32 1 12 C0.03929566 9.11788698 -0.10581883 7.30149956 -0.0625 4.3125 C-0.05347656 3.50425781 -0.04445312 2.69601562 -0.03515625 1.86328125 C-0.02355469 1.24839844 -0.01195312 0.63351562 0 0 Z " fill="#024EEC" transform="translate(133,550)"/>
<path d="M0 0 C0.66 0.33 1.32 0.66 2 1 C1.04956626 2.33897583 0.08940853 3.67105427 -0.875 5 C-1.40867188 5.7425 -1.94234375 6.485 -2.4921875 7.25 C-3.23855469 8.11625 -3.23855469 8.11625 -4 9 C-4.66 9 -5.32 9 -6 9 C-5.69381595 5.32579134 -5.24228216 4.21864487 -2.4375 1.6875 C-1.633125 1.130625 -0.82875 0.57375 0 0 Z " fill="#0595EF" transform="translate(254,422)"/>
<path d="M0 0 C3.96 1.98 7.92 3.96 12 6 C8 7 8 7 6 6 C6 5.34 6 4.68 6 4 C4.35 3.67 2.7 3.34 1 3 C0.67 2.01 0.34 1.02 0 0 Z " fill="#036AEC" transform="translate(287,364)"/>
<path d="M0 0 C0.99 0.495 0.99 0.495 2 1 C2.77811718 4.81984796 3.24386556 7.26840331 2 11 C2 10.34 2 9.68 2 9 C1.34 9 0.68 9 0 9 C0 6.03 0 3.06 0 0 Z " fill="#0051FA" transform="translate(133,541)"/>
<path d="M0 0 C4.19360449 0.67097672 7.40334352 2.8558394 11 5 C11 5.66 11 6.32 11 7 C6.89188572 5.55007731 3.53144334 3.54592427 0 1 C0 0.67 0 0.34 0 0 Z " fill="#036BEF" transform="translate(306,376)"/>
<path d="M0 0 C0.66 0.33 1.32 0.66 2 1 C1 4 1 4 -0.8125 5.1875 C-3 6 -3 6 -7 6 C-6.67 5.34 -6.34 4.68 -6 4 C-5.01 4 -4.02 4 -3 4 C-3 3.34 -3 2.68 -3 2 C-2.01 1.34 -1.02 0.68 0 0 Z " fill="#061C31" transform="translate(236,357)"/>
<path d="M0 0 C3.68754757 0.49831724 5.60490662 1.10067643 8 4 C7.67 4.66 7.34 5.32 7 6 C3.535 4.02 3.535 4.02 0 2 C0 1.34 0 0.68 0 0 Z " fill="#E1E3E2" transform="translate(737,555)"/>
<path d="M0 0 C0.33 0 0.66 0 1 0 C1.433125 1.6396875 1.433125 1.6396875 1.875 3.3125 C2.81893204 7.04013845 2.81893204 7.04013845 5 10 C3.125 9.6875 3.125 9.6875 1 9 C-1 6 -1 6 -0.625 2.8125 C-0.41875 1.884375 -0.2125 0.95625 0 0 Z " fill="#D2D4D4" transform="translate(662,494)"/>
<path d="M0 0 C0.66 0.33 1.32 0.66 2 1 C1.04956626 2.33897583 0.08940853 3.67105427 -0.875 5 C-1.40867188 5.7425 -1.94234375 6.485 -2.4921875 7.25 C-3.23855469 8.11625 -3.23855469 8.11625 -4 9 C-4.66 9 -5.32 9 -6 9 C-4.47291037 5.56404834 -2.40072955 2.88087546 0 0 Z " fill="#021B37" transform="translate(241,441)"/>
<path d="M0 0 C0.66 0.33 1.32 0.66 2 1 C1.3503125 1.5878125 1.3503125 1.5878125 0.6875 2.1875 C-1.26366224 4.28319278 -2.59010162 6.51589333 -4 9 C-4.99 8.67 -5.98 8.34 -7 8 C-4.69 5.36 -2.38 2.72 0 0 Z " fill="#011A36" transform="translate(262,415)"/>
<path d="M0 0 C0.66 0.33 1.32 0.66 2 1 C0.71937515 2.7074998 -0.61767557 4.37373596 -2 6 C-2.66 6 -3.32 6 -4 6 C-2.84826645 3.53199953 -1.95216435 1.95216435 0 0 Z M-5 6 C-5 9 -5 9 -5 9 Z " fill="#E1E2E2" transform="translate(650,477)"/>
<path d="M0 0 C3.3 1.65 6.6 3.3 10 5 C8.02 5.99 8.02 5.99 6 7 C6 6.34 6 5.68 6 5 C5.01 5 4.02 5 3 5 C1 3 1 3 0 0 Z " fill="#0664E9" transform="translate(306,403)"/>
<path d="M0 0 C0.66 0.33 1.32 0.66 2 1 C2 1.66 2 2.32 2 3 C-0.35438733 4.42944945 -1.48032433 5.08661261 -4.25 4.625 C-4.8275 4.41875 -5.405 4.2125 -6 4 C-4.02 2.68 -2.04 1.36 0 0 Z " fill="#062344" transform="translate(205,376)"/>
<path d="M0 0 C1.65 0.33 3.3 0.66 5 1 C3.35 2.32 1.7 3.64 0 5 C-0.33 4.01 -0.66 3.02 -1 2 C-0.67 1.34 -0.34 0.68 0 0 Z " fill="#05213D" transform="translate(187,386)"/>
</svg>
